<svg width="155" height="122" viewBox="0 0 155 122" fill="none" xmlns="http://www.w3.org/2000/svg">
<rect width="155" height="122" fill="#F5F5F5"/>
<g clip-path="url(#clip0_0_1)">
<rect width="1920" height="10133" transform="translate(-100 -3534)" fill="black"/>
<path d="M56.286 90.2607L64.0118 92.1938L63.6677 92.4207L63.3298 92.6476H63.3267L56.1815 97.3941L54.2954 95.7514L53.8254 95.343L52.2433 93.9666L55.7484 90.7508H55.7515L56.286 90.2607Z" fill="white"/>
<path d="M59.5604 107.317L49.374 98.7486L59.1856 91.2329L59.5634 91.7108L50.3477 98.7728L59.9597 106.857L59.5604 107.317Z" fill="white"/>
<path d="M93.5301 40.2593L85.6691 33.4467L86.0746 32.9929L93.5731 39.4909L103.514 32.6692L103.864 33.1653L93.5301 40.2593Z" fill="white"/>
<path d="M109.91 36.3846C109.591 36.3362 109.288 36.215 109.026 36.0306C106.39 34.518 105.431 34.1399 105.419 34.1369L105.64 33.5742C105.68 33.5742 106.639 33.9554 109.327 35.5103L109.357 35.5254C108.535 34.5489 107.663 33.6149 106.743 32.7271L105.726 31.7319L104.879 31.6351L105.45 31.4626L105.266 31.2811L105.551 31.4324L106.279 31.2146C106.279 31.2146 107.035 30.9605 109.351 29.4237C108.337 29.823 106.921 30.4371 105.607 31.0361L103.908 31.8136L105.266 30.543C105.266 30.543 106.055 29.7625 106.313 27.8203C106.317 27.771 106.317 27.7215 106.313 27.6721C105.616 27.9383 103.502 30.5006 103.441 31.0179C103.44 30.9879 103.433 30.9584 103.419 30.9313C103.406 30.9042 103.387 30.8801 103.364 30.8606L102.952 31.3083C102.682 31.0694 102.888 30.667 103.103 30.31C103.478 29.6869 105.65 26.7585 106.574 27.0731C106.771 27.1397 106.986 27.3363 106.912 27.899C106.823 28.6422 106.616 29.3671 106.298 30.0469C110.749 28.0472 110.887 28.2862 111.035 28.5343C111.216 28.8368 110.869 29.1151 110.276 29.5144C108.921 30.422 108.003 30.9847 107.404 31.3144C112.076 31.8952 112.07 32.2068 112.064 32.4851C112.064 32.8482 111.615 32.9117 110.992 32.9571C109.951 33.055 108.904 33.0661 107.861 32.9903C110.577 35.7281 110.337 36.0367 110.19 36.2242C110.159 36.27 110.117 36.3082 110.069 36.3359C110.02 36.3637 109.966 36.3803 109.91 36.3846ZM106.252 31.7924L107.112 32.2431C107.112 32.2431 107.837 32.5608 110.491 32.4004C109.453 32.2068 107.843 31.9769 106.344 31.7954L106.252 31.7924Z" fill="white"/>
<path d="M90.7075 47.3407L83.1599 36.1052L83.6698 35.7725L90.9963 46.6781L102.912 44.6241L103.017 45.22L90.7075 47.3407Z" fill="white"/>
<path d="M79.5066 11.9438C79.2086 11.9425 78.9115 11.9141 78.6188 11.8591C77.4681 11.6361 76.4485 10.9856 75.7714 10.0426C75.0943 9.09953 74.8114 7.93612 74.9814 6.79333C75.1515 5.65054 75.7613 4.61594 76.6847 3.90381C77.6081 3.19169 78.7742 2.85662 79.9416 2.968C81.109 3.07938 82.1881 3.62868 82.9555 4.50212C83.7229 5.37556 84.1197 6.50622 84.0638 7.6599C84.0079 8.81357 83.5035 9.90186 82.6551 10.6994C81.8068 11.4969 80.6794 11.9425 79.5066 11.9438ZM79.5066 3.49156C78.7856 3.49596 78.0793 3.6925 77.4626 4.06032C76.8458 4.42815 76.3417 4.95354 76.0038 5.58073C75.6658 6.20792 75.5066 6.91352 75.5429 7.62265C75.5793 8.33177 75.81 9.01797 76.2104 9.60842C76.8407 10.3699 77.7376 10.8715 78.7246 11.0145C79.7115 11.1575 80.7171 10.9315 81.5434 10.3811C82.3697 9.83065 82.9568 8.99559 83.1893 8.04023C83.4218 7.08487 83.2828 6.07842 82.7996 5.21893C82.4336 4.68663 81.9406 4.25083 81.3638 3.94969C80.787 3.64855 80.144 3.49124 79.4912 3.49156H79.5066Z" fill="white"/>
<path d="M75.7644 10.7244L67.9833 15.1249L51.647 56.3117L51.9542 56.3843L69.5285 60.7092L70.2688 60.8907L71.006 61.0722L77.7642 62.7356L77.9516 59.8987L77.97 59.5962L77.9915 59.2938L78.1328 57.1374L78.2618 55.1745L78.2803 54.8721V54.8509L78.3018 54.5485L79.1988 40.8478V40.8205L79.3708 38.1863L78.8056 37.5269L78.738 38.5643V38.6188L78.6028 40.6754V40.7389L78.3202 45.0487V45.2574L77.9762 50.5169L77.9332 51.146L77.6843 54.3912L77.6628 54.6936V54.7511L77.6444 55.0535L77.5184 56.9499L77.3587 59.3694L77.3403 59.6719L77.3188 59.9743L77.1898 61.9432L72.499 60.7879L71.7617 60.6064L71.0245 60.4249L53.4225 56.0909L52.4856 55.8611L54.9431 49.7003L55.0291 49.4765L55.0568 49.413L55.1674 49.1317L63.0867 29.1704L63.2157 28.8438L68.5024 15.5181L75.5678 11.5168L80.0343 18.7754L80.0098 19.1625V19.2351L79.9084 20.7836L79.8684 21.3885L80.4429 22.0116L80.4828 21.4067L80.6579 18.718V18.6242L75.7644 10.7244Z" fill="white"/>
<path d="M88.9654 30.926L80.2013 39.6515L66.3502 24.118L66.8109 23.7188L76.942 35.0816L77.3506 35.5383L80.2259 38.7623L88.1176 30.9079L84.9228 27.4358L84.6893 27.1818L74.3709 15.9641L74.8255 15.5588L85.2054 26.837L85.3406 26.9882L88.9654 30.926Z" fill="white"/>
<path d="M78.9879 41.1957L62.0311 38.6606L62.1233 38.0616L69.035 39.0962L59.8931 37.1662L60.0221 36.5732L79.0985 40.5997L78.9879 41.1957Z" fill="white"/>
<path d="M76.6857 47.3052L58.2144 42.3863L58.3465 41.7964L78.1786 45.0757L78.0773 45.6746L64.435 43.4179L76.8454 46.7244L76.6857 47.3052Z" fill="white"/>
<path d="M78.0869 51.1809L65.2157 48.6458L65.3386 48.0528L68.4627 48.67L58.0828 45.9594L58.2394 45.3726L78.2252 50.591L78.0869 51.1809Z" fill="white"/>
<path d="M78.2296 53.9965L57.9428 50.569L58.0473 49.973L68.4825 51.7367L54.4409 48.4786L54.5822 47.8887L78.3525 53.4035L78.2296 53.9965Z" fill="white"/>
<path d="M78.8838 39.0691L62.5321 29.2283L62.8516 28.714L74.7613 35.8806L65.3798 28.6112L65.7576 28.1362L79.234 38.573L78.8838 39.0691Z" fill="white"/>
<path d="M71.0931 27.7098L70.703 27.2409L75.7409 23.166L70.1501 26.5421L69.8275 26.0248L79.2152 20.3586L79.5716 20.8517L71.0931 27.7098Z" fill="white"/>
<path d="M73.9748 30.6865L73.5754 30.2267L78.515 26.0973L72.875 29.5218L72.5555 29.0075L81.6391 23.4927L81.9985 23.9797L73.9748 30.6865Z" fill="white"/>
<path d="M85.3394 26.9874L84.9217 27.4352L77.3495 35.5396L77.0269 35.8844L76.5753 35.473L76.9409 35.0828L81.8682 29.8099L75.9026 33.8182L75.5585 33.3161L84.6882 27.1811L85.2043 26.8362L85.3394 26.9874Z" fill="white"/>
<path d="M80.0386 37.3859L79.6208 36.9442L83.5221 33.3412L79.8543 35.9217L79.6546 35.6404H79.4211V35.4861L79.5502 35.3923L86.9196 30.2102L87.3067 30.6761L80.0386 37.3859Z" fill="white"/>
<path d="M80.207 19.8135L72.9389 13.6996L73.3383 13.2398L75.9924 15.4754L73.6731 13.0825L74.1154 12.665L80.6278 19.3748L80.207 19.8135Z" fill="white"/>
<path d="M68.2763 24.4196L67.8186 24.0173L73.0408 18.2211L67.2902 21.942L66.9523 21.4368L76.5735 15.208L68.2763 24.4196Z" fill="white"/>
<path d="M79.9897 10.7592L79.5381 10.3477L82.2875 7.41031C79.6518 8.215 76.4263 9.2254 76.1683 9.34035L75.9194 9.50371L75.7597 9.25565C75.6368 9.08019 75.6983 8.95313 75.8488 8.8291H75.8641C75.9225 8.7807 75.9901 8.73229 76.0638 8.67784L76.6782 8.22407L78.5613 6.85065L78.8685 6.63586L75.4894 8.18172L75.2313 7.63417L84.1398 3.56836L81.6823 5.34715C80.475 6.22445 78.9176 7.35585 77.7718 8.1908C79.363 7.6856 81.6178 6.99586 83.209 6.51184L84.2965 6.18209L79.9897 10.7592Z" fill="white"/>
<path d="M95.6962 62.062L90.1883 83.1484L90.1084 83.4478L90.0316 83.7472L84.9476 103.203L83.2212 102.099L82.6683 101.746L81.9188 101.268L85.0736 83.5022L85.1289 83.2028L85.1811 82.9004L86.1395 77.5017L87.8229 68.0262L80.048 68.4798L57.0887 69.8136L54.7356 63.8192L54.625 63.5319L54.5113 63.2445L51.9432 56.6966V56.1008H52.06L52.0661 56.1039H52.0723L53.4116 56.119H53.4178L68.341 56.3095H68.3594L75.5599 56.4002L75.5722 56.4033L77.5167 56.9507L77.8178 57.0354L78.1219 57.1201L82.8588 58.4538H82.8618L83.5376 58.6444L84.2196 58.8349L95.6962 62.062Z" fill="white"/>
<path d="M94.4847 109.321H81.0882L83.5856 97.3293L84.1877 97.4504L81.8408 108.716H94.4847V109.321Z" fill="white"/>
<path d="M110.311 47.5286C110.019 47.5227 109.728 47.5005 109.439 47.462C105.535 47.0204 103.083 46.5696 103.059 46.5545L103.172 45.9495C103.194 45.9495 105.63 46.4002 109.507 46.8389C108.689 46.5363 107.467 46.1249 106.355 45.7922L106.508 45.2053C106.53 45.2053 108.502 45.6016 111.439 44.8241C110.416 44.7727 108.6 44.7999 106.816 44.8786C106.586 44.9078 106.355 44.9179 106.124 44.9088V44.3038L106.714 44.2765C108.049 44.1195 109.275 43.4711 110.145 42.4615C110.224 42.3786 110.291 42.2848 110.342 42.1831C109.851 42.0228 107.611 42.5976 105.507 43.3206C105.293 43.4237 105.067 43.5019 104.834 43.5535L104.671 42.9727C104.868 42.9001 105.071 42.8275 105.286 42.7579C105.572 42.6222 105.81 42.4038 105.968 42.1317C106.186 41.7203 106.152 41.1848 105.866 40.5435C105.688 40.1412 105.498 40.1321 105.433 40.126H105.409C104.604 40.126 103.04 42.2073 102.177 43.7018L101.642 43.3993C102.023 42.7367 103.992 39.4393 105.464 39.518C105.753 39.5331 106.155 39.6783 106.432 40.2955C106.779 41.079 106.819 41.7626 106.548 42.3283C108.57 41.6931 110.496 41.2756 110.889 41.8383C111.165 42.2255 110.757 42.6944 110.622 42.8487C110.158 43.3872 109.599 43.8382 108.972 44.1798C112.658 44.1011 112.707 44.4278 112.747 44.6577C112.809 45.0238 112.37 45.178 111.826 45.3293C110.805 45.6372 109.753 45.837 108.689 45.9253C111.079 46.736 111.027 46.9901 110.978 47.22C110.929 47.4499 110.726 47.5286 110.311 47.5286Z" fill="white"/>
<path d="M73.5835 5.39405C73.5835 5.39405 73.4054 8.84877 76.597 9.51128C79.7887 10.1738 81.5704 5.39405 81.5704 5.39405L85.2567 5.99908C85.2567 5.99908 87.2381 1.48857 83.1064 0.402541C78.9747 -0.68349 76.041 0.251283 73.5835 5.39405Z" fill="white"/>
<path d="M36.2005 37.5465H36.1145L23.8485 36.8479L23.8085 37.2925L21.3326 63.7654H48.6724L50.5463 38.7079L50.5616 38.4841V38.3783L36.2005 37.5465ZM49.2192 38.9075L36.2866 51.0628L24.7915 37.477L49.2192 38.9075ZM48.1103 63.1605H21.9992L24.3553 37.9337L36.2374 51.9701L49.8981 39.1193L48.1103 63.1605Z" fill="white"/>
<path d="M28.3807 9.58862L28.3039 10.0241L23.6346 36.243L50.6059 38.4266L50.8915 38.4478L54.8666 13.4024L54.8819 13.2996L28.3807 9.58862ZM53.4934 13.6988L39.5931 24.7864L29.2654 10.3236L53.4934 13.6988ZM50.3724 37.7855L24.3565 35.6683L28.8046 10.7137L39.4856 25.6575L54.1692 13.9499L50.3724 37.7855Z" fill="white"/>
<path d="M142.086 122C140.897 122 23.2285 121.852 21.4468 122L21.3945 121.395C23.2039 121.246 137.233 121.395 142.086 121.395V122Z" fill="white"/>
<path d="M147.521 68.6991C143.867 65.1042 139.191 62.6857 134.111 61.7634C129.031 60.841 123.786 61.4582 119.07 63.5333L116.087 44.7818L126.838 52.721L127.001 52.3974C127.164 52.0768 130.964 44.4794 128.737 38.9779C127.871 36.8366 126.196 35.3063 123.76 34.4413L123.558 34.3687L116.302 42.8976L116.514 32.0096L105.559 31.1023L105.504 31.7072L116.127 32.6145L103.431 52.1221L103.947 52.4488L115.942 33.9997L115.697 43.0972L115.389 43.9622L115.303 44.2132L112.063 53.5134L82.8612 58.4553L77.983 59.278L77.6758 59.3324L77.3687 59.3838L71.0313 60.4545L70.2787 60.5815L69.5292 60.7085L54.523 63.246L41.3292 65.472H41.3108L40.7149 65.5809L26.8207 63.7662L0 81.3715L0.337905 81.8735L26.9651 64.3711L40.4077 66.1465V66.8753L31.6589 80.4309C28.081 78.3937 23.8501 77.7725 19.8242 78.6934C15.7983 79.6142 12.2788 82.008 9.97938 85.3894C7.68001 88.7708 6.77292 92.8866 7.44206 96.9022C8.1112 100.918 10.3065 104.533 13.5827 107.013C16.8589 109.494 20.9709 110.655 25.0846 110.261C29.1983 109.867 33.0058 107.948 35.735 104.892C38.4642 101.836 39.9108 97.8724 39.7813 93.8051C39.6519 89.7378 37.9562 85.8713 35.038 82.9895L40.4077 77.5456V81.0479L40.423 81.308L40.7302 87.006L55.7518 90.7654L58.8237 91.5336L59.567 91.7181L63.3363 92.6617L77.1936 96.1277L77.5008 96.2063L80.2654 83.2738L85.0822 83.5128L90.0402 83.7577L101.845 84.3324H102.076L111.516 57.0036L111.719 56.4168L115.574 45.3474L118.507 63.7965C113.625 66.0943 109.612 69.8621 107.048 74.5545C104.485 79.247 103.505 84.6208 104.249 89.8983C104.993 95.1757 107.424 100.083 111.189 103.91C114.955 107.737 119.859 110.286 125.193 111.186C130.526 112.087 136.013 111.294 140.858 108.921C145.704 106.548 149.657 102.719 152.145 97.9871C154.633 93.2557 155.528 87.8674 154.699 82.6021C153.871 77.3368 151.362 72.4676 147.537 68.6991H147.521ZM123.751 35.0885C125.901 35.9111 127.391 37.2963 128.169 39.2138C130.039 43.8382 127.311 50.2863 126.611 51.8076L116.111 44.056L123.751 35.0885ZM23.5123 97.9424C22.6516 97.9425 21.8181 97.6461 21.1561 97.1046L20.9933 96.9594C20.3682 96.381 19.9675 95.6061 19.8604 94.7682C19.7532 93.9302 19.9462 93.0817 20.4061 92.3688C20.866 91.6559 21.5641 91.1232 22.3801 90.8625C23.196 90.6019 24.0787 90.6295 24.8762 90.9408C24.9714 90.9771 25.0666 91.0194 25.1588 91.0648C25.2509 91.1102 25.34 91.1616 25.4291 91.213C25.5664 91.2957 25.6978 91.3877 25.8223 91.4882C25.9027 91.5506 25.9796 91.6173 26.0527 91.6878C26.1282 91.7566 26.2 91.8293 26.2677 91.9056C26.8691 92.5717 27.1975 93.434 27.1893 94.3251C27.1861 95.284 26.7975 96.2027 26.1086 96.8804C25.4196 97.5582 24.4862 97.94 23.5123 97.9424ZM40.4077 76.6564L34.5926 82.5691L26.2524 91.0527C26.0962 90.9244 25.9309 90.8071 25.7578 90.7019L32.1842 80.7454L40.4077 68.0004V76.6564ZM77.0369 95.4533L64.0121 92.1959L56.2863 90.2633L41.3292 86.513L41.0528 81.3231L64.7678 82.4966L77.6697 83.1347L79.6449 83.2345L77.0369 95.4533ZM110.984 56.6195L110.757 57.2788L108.026 65.1877L101.63 83.7275L90.1877 83.1619L85.1805 82.9139L80.3822 82.678L78.5053 82.5843L65.3821 81.9128L41.022 80.7031V66.1374L41.3292 66.086L54.735 63.8207L70.9945 61.0714L71.741 60.9444L72.4936 60.8174L77.3134 60.0038L77.6206 59.9494L77.9277 59.898L84.2067 58.8364L111.82 54.1697L110.984 56.6195ZM129.646 91.0436C128.693 91.0436 127.761 90.7653 126.968 90.2439C126.176 89.7225 125.558 88.9813 125.193 88.1143C124.828 87.2472 124.733 86.293 124.919 85.3725C125.105 84.452 125.564 83.6065 126.238 82.9428C126.912 82.2792 127.771 81.8272 128.706 81.6441C129.641 81.461 130.61 81.555 131.491 81.9142C132.371 82.2733 133.124 82.8815 133.654 83.6619C134.183 84.4423 134.466 85.3597 134.466 86.2983C134.464 87.5563 133.956 88.7624 133.052 89.652C132.149 90.5416 130.924 91.042 129.646 91.0436Z" fill="white"/>
</g>
<defs>
<clipPath id="clip0_0_1">
<rect width="1920" height="10133" fill="white" transform="translate(-100 -3534)"/>
</clipPath>
</defs>
</svg>
