<svg width="155" height="122" viewBox="0 0 155 122" fill="none" xmlns="http://www.w3.org/2000/svg">
<path d="M62.8703 118.715C58.1369 118.667 53.4174 118.216 48.7678 117.368H48.6983L48.649 117.321C44.3053 113.174 42.675 104.849 43.8073 92.5804C44.7108 82.809 47.3546 70.5104 51.6665 56.0275C59.0044 31.3806 68.7719 8.63872 68.8675 8.41199L68.9399 8.24609L100.394 13.0184L100.296 13.2756C99.9394 14.2074 64.9321 106.455 75.3077 116.84C76.2373 117.775 77.4969 117.99 79.1533 117.498C86.9199 115.192 92.4045 111.617 97.2405 108.465C105.586 103.024 111.615 99.0946 122.799 106.745C134.822 114.974 142.267 118.082 147.685 117.139C150.419 116.663 152.68 115.09 154.606 112.336L155 112.585C153.002 115.449 150.636 117.083 147.761 117.584C142.201 118.552 134.651 115.422 122.512 107.116C111.598 99.6504 105.685 103.502 97.5011 108.838C92.6362 112.01 87.1197 115.604 79.2836 117.93C77.4651 118.483 76.0085 118.206 74.9544 117.153C70.4978 112.69 73.3386 93.8135 83.3957 61.0542C90.4469 38.0829 98.7434 15.9991 99.7424 13.3779L69.2352 8.73549C68.3347 10.8452 59.1231 32.6276 52.1211 56.1409C47.8179 70.5961 45.1712 82.8643 44.2793 92.608C43.1644 104.688 44.731 112.872 48.9357 116.94C50.0651 117.153 64.5556 119.815 73.0635 116.94L73.2199 117.366C70.2227 118.377 66.4987 118.715 62.8703 118.715Z" fill="white"/>
<path d="M73.3813 113.555L73.2539 113.118C82.1613 110.748 84.7589 99.5253 84.7849 99.412L84.8284 99.2129L85.0427 99.235L111.394 102L111.342 102.448L85.199 99.705C84.7994 101.248 81.8949 111.282 73.3813 113.555Z" fill="white"/>
<path d="M117.923 118.486L117.848 118.405L105.135 104.412L105.494 104.116L118.132 118.027L139.45 117.476L139.462 117.93L117.923 118.486Z" fill="white"/>
<path d="M70.5718 14.3446L70.4968 14.7925L92.2142 18.1102L92.2893 17.6623L70.5718 14.3446Z" fill="white"/>
<path d="M69.4101 19.3179L69.3428 19.7678L89.6141 22.5329L89.6814 22.0829L69.4101 19.3179Z" fill="white"/>
<path d="M67.6812 26.2378L67.6119 26.6875L87.3036 29.4539L87.3729 29.0042L67.6812 26.2378Z" fill="white"/>
<path d="M65.6555 32.0416L65.5795 32.4902L85.2709 35.5321L85.3469 35.0834L65.6555 32.0416Z" fill="white"/>
<path d="M63.3318 38.9586L63.2736 39.4097L82.0966 41.6228L82.1548 41.1717L63.3318 38.9586Z" fill="white"/>
<path d="M62.4562 45.5781L62.3912 46.0283L79.1879 48.2395L79.2529 47.7893L62.4562 45.5781Z" fill="white"/>
<path d="M59.2781 50.8396L59.2108 51.2896L77.4553 53.7781L77.5226 53.3282L59.2781 50.8396Z" fill="white"/>
<path d="M57.2515 58.0368L57.1924 58.4878L78.0425 60.9781L78.1016 60.5271L57.2515 58.0368Z" fill="white"/>
<path d="M54.3447 64.3872L54.2936 64.8391L75.7227 67.051L75.7738 66.5992L54.3447 64.3872Z" fill="white"/>
<path d="M53.1843 71.8553L53.1436 72.3081L73.4154 73.9675L73.4561 73.5147L53.1843 71.8553Z" fill="white"/>
<path d="M52.0266 78.7743L51.9916 79.2275L71.6821 80.6115L71.7171 80.1582L52.0266 78.7743Z" fill="white"/>
<path d="M51.151 85.6681L51.1092 86.1208L70.7998 87.779L70.8417 87.3262L51.151 85.6681Z" fill="white"/>
<path d="M49.69 94.2371L49.6678 94.6912L68.2009 95.5195L68.2232 95.0655L49.69 94.2371Z" fill="white"/>
<path d="M49.9772 101.149L49.9633 101.603L69.6549 102.155L69.6689 101.7L49.9772 101.149Z" fill="white"/>
<path d="M49.4212 111.955L49.3823 112.408L67.0455 113.792L67.0844 113.339L49.4212 111.955Z" fill="white"/>
<path d="M116.858 105.574L109.04 106.129L109.076 106.582L116.893 106.027L116.858 105.574Z" fill="white"/>
<path d="M120.578 107.532L112.181 109.194L112.277 109.639L120.674 107.977L120.578 107.532Z" fill="white"/>
<path d="M125.235 111.662L115.679 113.323L115.764 113.77L125.32 112.109L125.235 111.662Z" fill="white"/>
<path d="M134.212 114.993L119.152 116.651L119.207 117.103L134.267 115.444L134.212 114.993Z" fill="white"/>
<path d="M35.1459 12.7144C35.1231 12.6493 35.096 12.5855 35.0648 12.5236C34.8886 12.1175 34.6408 11.7434 34.3321 11.4174C34.2176 11.2955 34.0947 11.1809 33.9644 11.0744C33.8862 11.0108 33.8051 10.95 33.724 10.8919C33.2107 10.5315 32.6163 10.2907 31.9883 10.1887C31.3602 10.0868 30.7159 10.1265 30.1067 10.3047C29.4976 10.4829 28.9405 10.7947 28.48 11.2152C28.0196 11.6357 27.6684 12.1531 27.4546 12.7263C27.2408 13.2994 27.1703 13.9124 27.2487 14.5162C27.3272 15.12 27.5523 15.698 27.9063 16.2039C28.2602 16.7098 28.7331 17.1296 29.2872 17.4299C29.8413 17.7301 30.4613 17.9025 31.0975 17.9332H31.306C31.9619 17.9317 32.6078 17.7797 33.1892 17.4899C33.7707 17.2001 34.2707 16.7811 34.6471 16.2682C35.0236 15.7552 35.2654 15.1634 35.3522 14.5425C35.4389 13.9216 35.3682 13.2899 35.1459 12.7006V12.7144ZM33.6545 16.5282C32.9644 17.1226 32.0559 17.4315 31.1278 17.3875C30.1997 17.3434 29.3277 16.9499 28.7027 16.2932C28.6593 16.2461 28.6158 16.1991 28.5782 16.1521C28.4567 16.0091 28.3482 15.8564 28.2539 15.6958C28.1424 15.514 28.0521 15.3211 27.9846 15.1205C27.9166 14.9366 27.8681 14.7467 27.8398 14.5536C27.7406 13.9174 27.8352 13.2675 28.1122 12.6813C28.3892 12.0951 28.8369 11.5973 29.402 11.2475C29.9671 10.8976 30.6256 10.7104 31.299 10.7081C31.9724 10.7059 32.6323 10.8887 33.1999 11.2348C33.4577 11.3957 33.694 11.5861 33.9036 11.8018C34.1719 12.0845 34.3874 12.4091 34.5406 12.7615C34.6166 12.9407 34.6766 13.1257 34.7202 13.3146C34.8568 13.8924 34.8301 14.4945 34.6429 15.0592C34.4556 15.6239 34.1145 16.1309 33.6545 16.5282Z" fill="white"/>
<path d="M32.1759 16.8383L31.6981 16.5258L33.6962 13.7602C31.504 14.753 28.8573 15.9727 28.643 16.1054L28.4316 16.2852L28.2492 16.0778C28.1102 15.934 28.1565 15.815 28.2752 15.6795C28.3187 15.6325 28.3708 15.5827 28.4287 15.5274L28.9123 15.0683L30.3892 13.6855L30.4963 13.5859L27.8727 15.2121L27.5571 14.7503L34.9906 10.1372L32.9432 12.0731L29.9693 14.8443C31.1942 14.2746 32.894 13.503 34.4201 12.8143L35.3902 12.3774L32.1759 16.8383Z" fill="white"/>
<path d="M19.8607 61.8485C21.1522 62.9683 25.6523 97.2401 25.6523 97.2401H39.5521L42.4479 61.572L19.8607 61.8485Z" fill="white"/>
<path d="M43.0273 61.5534L42.8825 60.4197L42.7377 59.2225L42.7029 58.946L40.4848 41.6097L40.3979 40.9295L39.5436 34.2604L39.3728 32.9194L38.5214 26.2669L38.4838 25.9765V25.8908L38.4143 25.3378V25.3129L38.3998 25.194L31.4875 20.3167L24.8272 23.9111L24.5376 24.0687L24.5 24.3839L20.4459 57.3589L19.8667 62.1229H20.1563H20.4459L27.7317 62.0345L31.7395 61.9875H32.0841H32.3736H33.0628H33.3524L34.9451 61.9681L42.451 61.8769H42.9085H43.091L43.0273 61.5534ZM35.7009 61.3819H34.919L33.3264 61.4041H33.0368H32.3447H32.0551H31.6757L20.4806 61.5423L20.5964 60.5995L20.6862 59.8667L21.0163 57.1875L23.5559 36.5691L23.666 35.676L23.7615 34.9101L24.0251 32.7645L24.0975 32.1701L24.2712 30.7516L24.3233 30.348L25.056 24.3922L25.3137 24.254L31.4267 20.9554L37.7338 25.407L37.8351 25.4788L38.7936 32.9691L39.7637 40.57L39.8535 41.2502L42.1122 58.9211L42.1469 59.1976L42.4134 61.2741L35.7009 61.3819Z" fill="white"/>
<path d="M34.6279 119.876C32.8267 119.876 31.8392 119.799 31.6713 119.647L31.5699 119.426C31.5699 119.039 32.0159 90.7004 32.0361 89.4949H32.6153C32.6153 89.7714 32.1838 116.766 32.152 119.24C33.0207 119.384 37.3383 119.301 41.1926 119.144L41.2187 119.697C38.3943 119.818 36.1974 119.878 34.6279 119.876Z" fill="white"/>
<path d="M25.8015 62.4753C25.8015 62.4753 8.44988 89.0743 8.85529 88.9444C9.2607 88.8144 17.5427 96.6863 17.5427 96.6863L30.678 82.6513L25.8015 62.4753Z" fill="white"/>
<path d="M5.95999 114.938C1.96959 110.625 -0.0343053 108.227 0.000444273 107.818L0.119173 107.603C0.524584 107.213 11.2043 94.2892 15.2816 89.3538L15.7391 89.6966C12.4147 93.7252 1.93194 106.425 0.614351 107.904C0.9937 108.595 3.79973 111.775 6.40594 114.581L5.95999 114.938ZM0.527481 107.987L0.484041 108.031C0.503997 108.015 0.520677 107.995 0.533269 107.973L0.527481 107.987Z" fill="white"/>
<path d="M34.9965 25.8502L27.8642 24.5558C27.7947 24.5432 27.7324 24.5066 27.6892 24.4531C27.646 24.3996 27.6248 24.3329 27.6296 24.2655C27.6344 24.1983 27.6647 24.1351 27.7148 24.0878C27.765 24.0404 27.8314 24.0121 27.9018 24.0083L31.8459 23.8008L28.4115 23.2643L28.507 22.7112L34.5563 23.6598C34.6331 23.6638 34.7051 23.6968 34.7564 23.7515C34.8078 23.8063 34.8342 23.8782 34.83 23.9516C34.8258 24.0249 34.7912 24.0937 34.7339 24.1427C34.6766 24.1917 34.6013 24.2169 34.5245 24.2129L30.3082 24.4342L35.1065 25.3026L34.9965 25.8502Z" fill="white"/>
<path d="M36.3483 30.0429L36.3396 30.5935L30.6088 31.05L29.9428 31.1026L29.5664 30.5797L30.2295 30.5271L33.4178 30.2726L29.7488 29.8603L28.9843 29.7746L28.3936 28.9556L29.077 28.9307L36.2122 28.6624L36.2354 29.2157L30.8029 29.4204L36.3483 30.0429Z" fill="white"/>
<path d="M29.1246 34.4244L30.2829 34.347L37.8467 33.8519C37.9208 33.8472 37.994 33.8698 38.0511 33.9151C38.1082 33.9604 38.145 34.0249 38.1537 34.0953C38.163 34.1658 38.1435 34.237 38.0993 34.2942C38.0551 34.3514 37.9895 34.3901 37.9162 34.4023L30.4943 35.6275L29.5879 35.7768L28.6989 35.9234L29.9325 35.9593L31.1777 35.9953C34.0938 36.0755 36.6537 36.1336 36.9085 36.1004V36.1198C37.1981 36.1059 37.2184 36.1723 37.2502 36.3106C37.2583 36.3462 37.2589 36.3829 37.2521 36.4188C37.2452 36.4546 37.231 36.4888 37.2103 36.5194C37.1896 36.55 37.1628 36.5763 37.1313 36.597C37.0999 36.6176 37.0645 36.6321 37.0272 36.6397H36.9577C36.7058 36.6729 35.2695 36.9162 33.4422 37.1928L32.5387 37.3394L25.3601 38.5397H25.3108C25.234 38.5459 25.1578 38.5228 25.0989 38.4753C25.0399 38.4278 25.0032 38.36 24.9967 38.2866C24.9901 38.2133 25.0144 38.1405 25.0641 38.0842C25.1138 38.0279 25.1848 37.9928 25.2616 37.9866L31.088 37.0269L31.7366 36.9218L32.643 36.7724L33.6739 36.6037L32.2608 36.5705L31.0156 36.5374L27.0107 36.4184L26.0145 36.3853L27.2626 35.5915L28.6758 35.3592L28.7858 35.3398L29.6893 35.1905L32.2694 34.7646L29.3013 34.9582H29.2607L28.2066 35.0273H28.1371L28.1719 35.0024L28.7134 34.6595L29.1246 34.4244Z" fill="white"/>
<path d="M38.193 43.9612L24.7362 43.0983L24.7305 42.5452L33.6003 41.8123L23.5721 41.4583L23.5953 40.908L38.3117 41.4251L38.3262 41.9755L28.5355 42.7858L38.2307 43.4081L38.193 43.9612Z" fill="white"/>
<path d="M39.5599 51.0287L24.1195 50.683L24.0848 50.1326L34.944 48.6502L22.5964 48.9572L22.5819 48.4041L39.919 47.9727L39.9682 48.523L27.6264 50.2073L39.5715 50.4755L39.5599 51.0287Z" fill="white"/>
<path d="M40.6479 55.8581C38.7599 55.8581 22.1872 55.8581 21.637 55.7668L21.388 55.7281V55.4901C21.388 55.2135 21.388 55.2135 24.6429 54.8732C26.2327 54.7099 28.4479 54.4941 31.2279 54.2285L33.4779 54.0155L21.6052 54.2285V53.6752L40.8391 53.3293L40.8709 53.8827C36.2521 54.3088 30.1565 54.8842 26.1024 55.2854C30.1159 55.3075 36.116 55.3158 40.6682 55.3158L40.6479 55.8581Z" fill="white"/>
<path d="M42.0499 60.423L35.6994 61.3827L31.7119 61.9856H31.7061L27.6983 62.0326L31.6714 61.4325L38.685 60.3732L21.4116 60.0828L21.4 59.5297L41.6271 58.4954L41.659 59.0485L29.5661 59.6652L42.0094 59.8754L42.0499 60.423Z" fill="white"/>
<path d="M64.7108 18.6047L46.8756 27.6323L46.2993 27.9254L45.7607 27.5743L46.3369 27.2812L63.0428 18.8259L41.2288 14.2858L41.3504 13.7439L64.7108 18.6047Z" fill="white"/>
<path d="M34.6639 21.3763C34.609 21.3787 34.5544 21.369 34.5042 21.3479C34.4539 21.3267 34.4095 21.2948 34.3743 21.2546C34.2005 21.0638 33.9805 20.8232 36.0017 17.5155C36.7344 16.3152 37.551 15.0624 37.9245 14.5176C35.2372 13.0628 35.3791 12.6425 35.437 12.4599C35.5587 12.0949 36.0944 12.1474 36.3232 12.1834C38.4632 12.3991 39.4072 13.1292 39.4477 13.1596L39.08 13.5883C39.08 13.5883 38.2112 12.9301 36.2652 12.7337H36.1436C36.8737 13.2916 37.6559 13.7841 38.4805 14.205L38.7846 14.3654L38.5616 14.6226C38.2489 15.0126 35.4631 19.3242 34.939 20.6655C36.3869 19.6699 38.1649 17.2528 38.1823 17.2279L38.9525 16.1742L38.7064 17.4353C38.5985 17.9597 38.5336 18.4914 38.5124 19.0255C39.022 18.5526 39.4622 18.8264 39.7083 18.9813C39.9545 19.1361 39.9255 19.1168 40.0211 19.0089C40.2432 18.7579 40.5507 18.5894 40.8898 18.5332C41.1794 18.4641 41.2547 18.442 41.2981 18.0576C41.4053 17.0813 41.5877 14.725 41.5877 14.7001L42.1669 14.7416C42.1669 14.7637 41.9873 17.1283 41.8773 18.1156C41.7991 18.8236 41.4516 18.9674 41.0375 19.0698C40.8204 19.1003 40.6221 19.2044 40.4786 19.3629C40.0587 19.8497 39.6099 19.5759 39.4072 19.4431C39.1495 19.2855 39.08 19.2412 38.8483 19.5095C38.6166 19.7778 38.4342 19.8248 38.2373 19.7363C38.1157 19.681 37.8637 19.5676 37.9796 18.4337C37.2353 19.3104 36.077 20.6517 35.0374 21.2546C34.9268 21.3268 34.7976 21.3689 34.6639 21.3763Z" fill="white"/>
<path d="M86.2232 41.9365L54.8878 47.2618L54.3637 47.3531L51.9515 47.7623L51.8617 47.7125L40.4755 41.6102L39.85 41.2757L32.5468 37.3605L31.7447 36.9319L31.0236 36.5476L29.9348 35.9614L29.5902 35.7789L28.7938 35.3504L28.7475 35.3282L28.2147 35.0407L28.1799 35.0213L28.7214 34.6785L29.2688 34.9716L29.289 34.9826L29.6973 35.201L30.4966 35.6296L31.18 35.9974L32.2688 36.5808L32.651 36.7826L33.4503 37.2139L39.7602 40.5955L40.3886 40.9301L52.0558 47.1816L54.5548 46.7558L55.0819 46.6674L86.1248 41.3946L86.2232 41.9365Z" fill="white"/>
<path d="M93.1408 45.9511C92.7151 45.9511 91.5105 45.4422 87.3492 43.0362L87.688 42.4996C89.1157 43.3293 90.662 44.1728 91.7422 44.7259C90.2508 43.4289 89.608 42.837 89.6022 42.8315L88.5742 41.8829L89.9323 42.3088C91.0703 42.6656 92.3474 43.0251 93.2277 43.2353C92.2493 42.6869 91.2209 42.224 90.1553 41.8525L90.3348 41.2523C91.6263 41.5289 93.08 41.8055 94.0269 41.9465C91.3165 40.7628 85.8782 39.344 85.2411 39.7008L84.9052 39.1643C86.0461 38.5144 92.8947 40.6577 94.858 41.634C95.1621 41.7833 95.6196 42.0129 95.4806 42.3724C95.4024 42.5771 95.3069 42.8177 93.0945 42.4443C93.4507 42.6324 93.8213 42.8398 94.2007 43.0721C94.4497 43.2242 94.8667 43.4814 94.6988 43.8161C94.5829 44.0511 94.4555 44.3111 91.1138 43.3293C91.5713 43.7331 92.191 44.2779 92.9931 44.9693C93.2827 45.2155 93.636 45.5224 93.4043 45.8211C93.3768 45.8635 93.3377 45.8979 93.2913 45.9208C93.2449 45.9437 93.1929 45.9542 93.1408 45.9511Z" fill="white"/>
<path d="M46.8746 27.6348L46.336 27.2891L42.5164 24.8L39.5511 25.1872L38.3928 25.3421L37.7297 25.4306L37.3996 25.4749L38.7895 32.9946L39.0791 34.5489L39.5367 34.2723L48.4702 28.6719L46.8746 27.6348ZM46.2665 29.3937L45.7684 29.7035L45.5396 29.8473L45.447 29.9054L45.2095 30.0547L41.4971 32.3779L40.944 32.7236L39.4961 33.6307L39.3658 32.9227L38.0772 25.945L38.4652 25.8925L38.8909 25.8344H38.9604L39.6438 25.7404L39.8552 25.7127L41.7433 25.4583L41.9286 25.4334H41.9489L42.2616 25.3919L42.3745 25.3753L45.7568 27.5878L46.2954 27.939L47.4248 28.6775L46.4489 29.2887L46.2665 29.3937Z" fill="white"/>
<path d="M42.99 31.0227L42.4862 31.2937L41.8346 30.1847L41.5508 29.7035L40.7255 28.3041L41.0412 29.9635L41.1483 30.5332L41.4987 32.3751L41.574 32.7678L41.018 32.9116L40.9456 32.7208L40.2854 30.9702L40.0884 30.4447L38.5131 26.2658L38.4118 25.9976L38.4755 25.9754L38.8896 25.8316H38.8925L38.9562 25.8095L38.962 25.8233L40.3809 29.5901L39.6454 25.7293L39.544 25.1872L39.5382 25.1624L39.5527 25.1845L39.8568 25.7016L42.0605 29.4463L42.3443 29.9275L42.99 31.0227Z" fill="white"/>
<path d="M46.695 29.0192L46.501 29.2238L46.4517 29.2764L46.307 29.4285L46.2664 29.3925L45.2037 28.4799L44.7461 28.0872L44.5898 27.9517L44.6824 28.1204C44.778 28.2891 44.8706 28.4522 44.972 28.6043L44.9865 28.6292C45.3919 29.1409 45.638 29.4755 45.7799 29.7023C46.0203 30.0784 45.9768 30.1476 45.9305 30.2278L45.6207 30.3716C45.5512 30.3716 45.4556 30.3495 45.221 30.0535C44.9478 29.7002 44.6983 29.3307 44.4739 28.9473L44.4247 28.8837L44.0656 28.4412C43.3677 27.5866 42.4816 26.5274 41.636 25.54L41.7345 25.4626L41.8677 25.352L42.0907 25.1777L42.2615 25.3796C42.5511 25.717 42.8175 26.0305 43.0608 26.3199L42.6583 25.5511L45.2876 27.8106L45.7452 28.2033L46.695 29.0192Z" fill="white"/>
<path d="M28.2155 35.0291H28.146L27.2773 35.5821L28.6904 35.3498L28.7541 35.3084L28.2155 35.0291ZM29.7503 29.8503L28.9858 29.7646L29.565 30.5692L30.2281 30.5167L29.7503 29.8503ZM28.2155 35.0291H28.146L27.2773 35.5821L28.6904 35.3498L28.7541 35.3084L28.2155 35.0291ZM29.7503 29.8503L28.9858 29.7646L29.565 30.5692L30.2281 30.5167L29.7503 29.8503ZM28.2155 35.0291H28.146L27.2773 35.5821L28.6904 35.3498L28.7541 35.3084L28.2155 35.0291ZM29.7503 29.8503L28.9858 29.7646L29.565 30.5692L30.2281 30.5167L29.7503 29.8503ZM28.146 35.0346L27.2773 35.5876L28.6904 35.3554L28.7541 35.3139L28.2213 35.0374L28.146 35.0346ZM30.6103 31.0393L30.231 30.5167L29.7503 29.8503L29.0785 28.9462L26.1537 24.8955L25.311 24.2927L24.8072 23.9305L24.5523 23.748L24.5147 24.0881L24.4771 24.4033L23.5388 32.4217V32.5379L23.1189 36.1323L23.5649 36.6162L24.7464 37.9019L27.0311 36.4475L28.6962 35.3886L28.7599 35.3471L29.3015 35.0015L29.3217 34.9876L30.2976 34.3683L32.1509 33.1876L30.6103 31.0393ZM29.1277 34.4263L28.731 34.678L28.1808 35.0291L28.146 35.054L27.2773 35.607L26.0292 36.4005L24.839 37.1581L23.7184 35.9388L23.7473 35.6844L23.8429 34.877L24.0803 32.8282L24.1498 32.231L24.3149 30.8236L24.3728 30.3259L25.0215 24.7628L25.7367 25.2743L27.2078 27.3121L27.396 27.5692L28.4009 28.9517L28.98 29.7812L29.5592 30.5858L29.9356 31.1084L31.3198 33.0245L29.1277 34.4263ZM28.2155 35.0291H28.146L27.2773 35.5821L28.6904 35.3498L28.7541 35.3084L28.2155 35.0291ZM29.7503 29.8503L28.9858 29.7646L29.565 30.5692L30.2281 30.5167L29.7503 29.8503ZM28.2155 35.0291H28.146L27.2773 35.5821L28.6904 35.3498L28.7541 35.3084L28.2155 35.0291ZM29.7503 29.8503L28.9858 29.7646L29.565 30.5692L30.2281 30.5167L29.7503 29.8503ZM28.2155 35.0291H28.146L27.2773 35.5821L28.6904 35.3498L28.7541 35.3084L28.2155 35.0291ZM28.2155 35.0291H28.146L27.2773 35.5821L28.6904 35.3498L28.7541 35.3084L28.2155 35.0291Z" fill="white"/>
<path d="M116.134 122C115.013 122 4.09259 121.865 2.41013 122L2.3638 121.447C4.06942 121.311 111.561 121.447 116.137 121.447L116.134 122Z" fill="white"/>
<path d="M37.4586 0.367741L25.2963 14.1926L24.8503 13.8387L30.4334 7.47924C29.5647 7.12532 26.9787 6.21288 25.2036 7.05896C23.5154 7.86633 24.9343 11.4553 25.6206 12.7714L25.1052 13.0202C24.668 12.16 24.3207 11.2607 24.0685 10.3354C23.4227 7.87186 24.1872 6.92624 24.9372 6.5668C27.0772 5.54376 30.057 6.71058 30.8128 7.03961L37.0069 0L37.4586 0.367741Z" fill="white"/>
<path d="M22.177 5.71851C21.9479 5.71851 21.724 5.78341 21.5335 5.90501C21.343 6.02662 21.1945 6.19946 21.1069 6.40168C21.0192 6.6039 20.9962 6.82642 21.0409 7.04109C21.0856 7.25577 21.1959 7.45296 21.3579 7.60773C21.5199 7.76251 21.7263 7.86791 21.951 7.91061C22.1757 7.95331 22.4086 7.93139 22.6203 7.84763C22.8319 7.76387 23.0128 7.62202 23.1401 7.44003C23.2674 7.25803 23.3353 7.04407 23.3353 6.82519C23.3353 6.53168 23.2133 6.25019 22.9961 6.04265C22.7788 5.8351 22.4842 5.71851 22.177 5.71851ZM22.177 7.37853C22.0624 7.37853 21.9505 7.34608 21.8552 7.28527C21.76 7.22447 21.6858 7.13805 21.6419 7.03694C21.5981 6.93583 21.5866 6.82457 21.609 6.71724C21.6313 6.6099 21.6865 6.5113 21.7675 6.43392C21.8485 6.35653 21.9517 6.30383 22.064 6.28248C22.1764 6.26113 22.2928 6.27209 22.3986 6.31397C22.5045 6.35585 22.5949 6.42677 22.6585 6.51777C22.7222 6.60876 22.7562 6.71575 22.7562 6.82519C22.7562 6.97194 22.6951 7.11269 22.5865 7.21646C22.4779 7.32023 22.3306 7.37853 22.177 7.37853Z" fill="white"/>
<path d="M28.9812 32.7804L27.099 33.8148L26.5198 34.1384L25.5845 34.6555L24.5391 35.2335L23.7514 35.6705C23.7448 35.672 23.7378 35.672 23.7312 35.6705C23.7073 35.6841 23.6806 35.6926 23.653 35.6954C23.6377 35.6981 23.622 35.6981 23.6066 35.6954C23.5476 35.6959 23.4898 35.6791 23.4411 35.6474C23.3923 35.6156 23.3548 35.5704 23.3337 35.5177C23.3126 35.4651 23.3089 35.4075 23.323 35.3528C23.3371 35.298 23.3684 35.2487 23.4126 35.2114L23.7485 34.9349L23.8267 34.8685L25.3905 33.5272L25.8451 33.1372L28.0459 31.251L28.4687 30.8887C28.5265 30.8444 28.6 30.823 28.6739 30.8288C28.7478 30.8347 28.8166 30.8674 28.866 30.9203C28.9154 30.9731 28.9416 31.0421 28.9394 31.1129C28.9371 31.1837 28.9065 31.2509 28.8538 31.3008L26.375 33.4276L25.9407 33.8175L25.9001 33.8507L25.9522 33.8231L26.5314 33.4995L28.7003 32.2992C28.7334 32.2811 28.7699 32.2693 28.8078 32.2646C28.8456 32.2599 28.8841 32.2624 28.9209 32.2719C28.9577 32.2814 28.9923 32.2978 29.0225 32.32C29.0527 32.3422 29.0781 32.3699 29.0971 32.4015C29.1161 32.4331 29.1284 32.468 29.1333 32.5041C29.1382 32.5403 29.1356 32.577 29.1257 32.6122C29.1157 32.6474 29.0986 32.6803 29.0753 32.7092C29.052 32.7381 29.023 32.7623 28.9899 32.7804H28.9812Z" fill="white"/>
<path d="M27.3219 27.7374L25.6742 29.6734L26.957 28.993C27.0056 28.9673 27.0609 28.9554 27.1164 28.9588C27.1718 28.9622 27.2251 28.9808 27.2698 29.0124C27.3039 29.034 27.3318 29.0635 27.3508 29.0981C27.3884 29.1619 27.3978 29.2374 27.3772 29.3079C27.3566 29.3784 27.3075 29.4382 27.2408 29.4742L27.0699 29.5655L24.6346 30.8571C24.5913 30.8805 24.5424 30.8929 24.4927 30.893C24.425 30.8931 24.3595 30.8706 24.3074 30.8294C24.2934 30.8188 24.2808 30.8068 24.2697 30.7934C24.2279 30.7442 24.205 30.6827 24.205 30.6192C24.205 30.5558 24.2279 30.4942 24.2697 30.445L24.3189 30.3897L24.3653 30.3371L26.8759 27.4056C26.9143 27.3613 26.9661 27.3295 27.0242 27.3146C27.0823 27.2997 27.1439 27.3025 27.2003 27.3226C27.2302 27.3318 27.2578 27.3469 27.2813 27.3668C27.3146 27.3926 27.3414 27.425 27.3599 27.4618C27.3784 27.4987 27.3882 27.5389 27.3885 27.5798C27.3842 27.6377 27.3609 27.6929 27.3219 27.7374Z" fill="white"/>
</svg>
