<svg width="85" height="122" viewBox="0 0 85 122" fill="none" xmlns="http://www.w3.org/2000/svg">
<rect width="85" height="122" fill="#F5F5F5"/>
<g clip-path="url(#clip0_0_1)">
<rect width="1920" height="10133" transform="translate(-1189 -3534)" fill="black"/>
<path d="M84.9978 121.803C84.1606 121.803 1.29158 121.699 0.0346161 121.803L0 121.378C1.27211 121.274 81.5817 121.378 85 121.378L84.9978 121.803Z" fill="white"/>
<path d="M45.5799 43.5676H45.4242C44.9235 43.5416 44.4372 43.3953 44.008 43.1416C43.5789 42.8879 43.2201 42.5346 42.9635 42.113C42.7069 41.6913 42.5604 41.2143 42.5367 40.7241C42.5131 40.2338 42.6132 39.7454 42.8281 39.302C43.0431 38.8586 43.3662 38.4738 43.7691 38.1817C44.172 37.8896 44.6421 37.6991 45.138 37.6271C45.6339 37.5551 46.1403 37.6037 46.6124 37.7687C47.0845 37.9338 47.5079 38.2101 47.8451 38.5733C48.2405 39.0023 48.5006 39.5343 48.5937 40.1049C48.6869 40.6755 48.6092 41.2604 48.3701 41.7887C48.1309 42.317 47.7405 42.7662 47.2461 43.0819C46.7517 43.3976 46.1745 43.5663 45.5843 43.5676H45.5799ZM45.5799 38.0163C44.9802 38.0168 44.3989 38.2189 43.9332 38.5888C43.4675 38.9586 43.1456 39.4738 43.0213 40.0482C42.8971 40.6226 42.9781 41.2213 43.2507 41.7442C43.5234 42.2671 43.9711 42.6826 44.5192 42.921C45.0672 43.1595 45.6822 43.2065 46.2614 43.0542C46.8405 42.9019 47.3487 42.5595 47.701 42.0844C48.0532 41.6092 48.2281 41.0301 48.1965 40.4438C48.1648 39.8575 47.9285 39.2996 47.527 38.8635C47.2813 38.5953 46.9804 38.3809 46.6441 38.2346C46.3078 38.0882 45.9436 38.0131 45.5756 38.0141L45.5799 38.0163Z" fill="white"/>
<path d="M46.2284 42.7191L45.8714 42.4798L47.3642 40.3618C45.7265 41.1222 43.7491 42.0562 43.589 42.1558L43.4311 42.2955L43.2948 42.1367C43.1909 42.0266 43.2255 41.9355 43.3142 41.8317C43.3142 41.8317 43.3142 41.8317 43.325 41.8317C43.3575 41.7957 43.3964 41.7576 43.4397 41.7152L43.801 41.3636L44.9044 40.3046L44.9844 40.2283L43.0243 41.4737L42.7885 41.12L48.3421 37.5872L46.8125 39.0698L44.5799 41.192C45.495 40.7557 46.7649 40.1648 47.9051 39.6374L48.6298 39.3028L46.2284 42.7191Z" fill="white"/>
<path d="M54.5242 79.8771L36.6107 79.5701L36.6475 79.3329L41.3141 48.2962L45.2711 43.9807L49.1545 48.7367L49.1653 48.7917L54.5242 79.8771ZM37.1105 79.155L54.0093 79.4451L48.7477 48.9146L45.2494 44.6371L41.723 48.4847L37.1105 79.155Z" fill="white"/>
<path d="M47.8445 121.21C46.4988 121.21 45.7611 121.15 45.6356 121.034L45.5599 120.864V115.118H45.9926V120.727C46.6416 120.837 49.8652 120.775 52.7491 120.653L52.7685 121.076C50.6585 121.167 49.0171 121.211 47.8445 121.21Z" fill="white"/>
<path d="M48.1195 49.1993L42.7909 48.2077C42.739 48.198 42.6925 48.17 42.6602 48.129C42.6279 48.088 42.6121 48.0369 42.6157 47.9852C42.6193 47.9338 42.6419 47.8854 42.6794 47.8491C42.7168 47.8128 42.7665 47.7912 42.819 47.7882L45.7657 47.6293L43.1998 47.2182L43.2712 46.7944L47.7907 47.5212C47.848 47.5243 47.9018 47.5496 47.9402 47.5915C47.9785 47.6334 47.9983 47.6885 47.9951 47.7447C47.992 47.8009 47.9661 47.8536 47.9233 47.8912C47.8805 47.9287 47.8242 47.9481 47.7669 47.945L44.6169 48.1145L48.2017 48.7798L48.1195 49.1993Z" fill="white"/>
<path d="M41.0277 53.4904L40.9909 53.0687L46.9404 52.5835L42.1981 52.0369L42.2154 51.6152L49.0281 51.3503L49.0454 51.7741L44.9868 51.9309L49.1298 52.4077L49.1233 52.8293L41.0277 53.4904Z" fill="white"/>
<path d="M40.6725 58.7099C40.6151 58.7147 40.5581 58.697 40.5141 58.6606C40.4701 58.6243 40.4426 58.5723 40.4377 58.5161C40.4328 58.46 40.451 58.4042 40.4881 58.3611C40.5252 58.318 40.5783 58.2911 40.6357 58.2863L44.9885 57.5514L46.5333 57.293C44.545 57.293 42.0765 57.293 40.9991 57.2824C40.9446 57.2826 40.8921 57.2626 40.852 57.2265C40.8119 57.1903 40.7871 57.1407 40.7828 57.0875C40.7787 57.0352 40.7946 56.9833 40.8274 56.9419C40.8602 56.9004 40.9075 56.8723 40.9602 56.863L47.9352 55.6812L40.4886 55.3804C40.4312 55.3804 40.3762 55.3581 40.3356 55.3184C40.295 55.2786 40.2722 55.2248 40.2722 55.1686C40.2722 55.1124 40.295 55.0585 40.3356 55.0188C40.3762 54.9791 40.4312 54.9568 40.4886 54.9568L49.9732 55.3423C50.0016 55.3406 50.03 55.3444 50.0569 55.3535C50.0838 55.3626 50.1086 55.3768 50.1299 55.3953C50.1512 55.4138 50.1686 55.4362 50.181 55.4613C50.1935 55.4863 50.2008 55.5136 50.2025 55.5414C50.2042 55.5692 50.2003 55.597 50.191 55.6234C50.1817 55.6497 50.1672 55.674 50.1483 55.6949C50.1294 55.7157 50.1065 55.7327 50.0809 55.7449C50.0553 55.7571 50.0275 55.7642 49.9991 55.7659L43.4698 56.863C46.2325 56.863 49.1056 56.863 49.3306 56.8312V56.8461C49.547 56.8355 49.5643 56.8863 49.5881 56.9922C49.5941 57.0195 49.5946 57.0476 49.5894 57.0751C49.5843 57.1025 49.5737 57.1287 49.5583 57.1521C49.5428 57.1755 49.5227 57.1957 49.4992 57.2116C49.4758 57.2274 49.4493 57.2385 49.4215 57.2443H49.3587C48.8222 57.3226 42.9787 58.3033 40.7049 58.693L40.6725 58.7099Z" fill="white"/>
<path d="M50.508 63.0682L40.4544 62.4071L40.4501 61.9834L47.0768 61.4219L39.5847 61.1507L39.5999 60.729L50.5967 61.1252L50.6075 61.5469L43.2907 62.1677L50.5361 62.6445L50.508 63.0682Z" fill="white"/>
<path d="M51.5309 68.4839L39.9932 68.2191L39.9694 67.7974L48.0824 66.6617L38.8574 66.8969L38.8466 66.4731L51.7992 66.1426L51.836 66.5642L42.6153 67.8546L51.5396 68.0601L51.5309 68.4839Z" fill="white"/>
<path d="M52.3437 72.1776C50.9332 72.1776 38.5517 72.1776 38.1428 72.1077L37.9546 72.078V71.8958C37.9546 71.6839 37.9546 71.6839 40.3863 71.4233C41.574 71.2983 43.2291 71.133 45.306 70.9296L46.987 70.7643L38.1168 70.9296V70.5058L52.4865 70.241L52.5103 70.6647C49.0596 70.991 44.5055 71.4318 41.4767 71.739C44.4752 71.756 48.9579 71.7623 52.3589 71.7623L52.3437 72.1776Z" fill="white"/>
<path d="M57.7357 46.4251L57.4285 46.1244L59.5444 44.0534L62.1665 29.6458L62.5927 29.7199L59.9468 44.2609L57.7357 46.4251Z" fill="white"/>
<path d="M37.0286 45.2728C36.8123 44.5189 36.2238 42.4607 35.9664 42.0181C35.8604 41.8381 35.7024 41.5671 39.4517 34.071C41.2798 30.4162 43.1707 26.7825 43.1902 26.7444L43.5752 26.9371C40.7909 32.2817 36.3991 40.9975 36.3601 41.8403C36.7063 42.4755 37.4159 45.0525 37.4418 45.1627L37.0286 45.2728Z" fill="white"/>
<path d="M44.1417 28.3505L43.9513 27.9714C45.0125 27.4639 46.0458 26.9026 47.0472 26.2897C46.3813 26.3003 45.7176 26.3669 45.0633 26.4888L43.3217 26.7959L44.9443 26.0927C45.7802 25.6872 46.486 25.0643 46.9845 24.2923L47.0169 24.2394C46.5972 24.3898 45.6301 24.9659 44.8275 25.5102L44.04 26.0524L44.516 25.2328C44.8715 24.5753 45.1515 23.8813 45.3511 23.1634C45.0374 23.6972 44.6133 24.4936 44.2412 25.2412L43.8388 25.0908C44.0616 24.1679 44.172 23.2223 44.1676 22.2739C43.7609 23.295 43.4092 24.3364 43.114 25.3937L42.8761 26.2113L42.6943 25.3789C42.6943 25.3789 42.5775 24.8536 42.3547 24.1504C42.2616 24.8324 42.1773 26.08 42.1383 27.2258L41.7056 27.211C41.8441 23.3647 42.1015 23.3265 42.2898 23.3011C42.3936 23.2863 42.5321 23.3202 42.6186 23.5701C42.7441 23.9259 42.835 24.2542 42.9215 24.5274C43.8583 21.4415 44.146 21.4796 44.3256 21.5029C44.6025 21.541 44.6025 21.9096 44.6025 22.1383C44.6036 22.6894 44.5747 23.2402 44.516 23.7883C45.4462 22.0494 45.6215 22.1087 45.7794 22.1616C46.0217 22.2442 45.9568 22.5471 45.9114 22.7462C45.762 23.4228 45.5446 24.0833 45.2623 24.7181C47.0861 23.5426 47.3328 23.7671 47.4258 23.8582C47.6422 24.0551 47.4258 24.3855 47.3566 24.5084C47.0124 25.0552 46.5671 25.5343 46.0434 25.9211C47.4691 25.7601 47.5578 25.9995 47.6119 26.1117C47.7179 26.368 47.4085 26.5714 47.2938 26.6476C46.2754 27.2708 45.2232 27.8392 44.1417 28.3505Z" fill="white"/>
<path d="M63.502 31.6248L63.2273 31.2965C63.3311 31.2161 65.3907 29.5598 66.598 28.6554C66.1155 28.81 65.4881 29.0324 64.9061 29.2505L64.071 29.564L64.6573 28.9138C64.679 28.8905 66.6261 26.7258 67.1064 25.419C66.6347 25.7706 65.6287 26.8 64.7958 27.7488L64.1468 28.488L64.4302 27.5497C64.7597 26.3314 64.9655 25.0842 65.0446 23.8262C65.0446 23.8135 65.0446 23.8008 65.0446 23.7881C64.6638 24.4235 63.9434 26.0883 63.3528 27.6408L63.0932 28.3249L62.9395 27.6112C62.6802 26.5123 62.2926 25.4462 61.7843 24.4341C61.7644 24.3953 61.742 24.3578 61.7172 24.3219C61.5009 24.7222 61.3624 26.4399 61.3364 28.0199C61.3595 28.0933 61.3647 28.1709 61.3516 28.2466C61.3472 28.2834 61.3351 28.3189 61.3161 28.351C61.2972 28.383 61.2717 28.4109 61.2412 28.433L60.8972 28.6702V28.2741C60.8972 28.2127 60.8972 28.1513 60.8972 28.092C60.8475 27.9352 60.6809 27.5794 60.1271 26.8529C60.0994 26.8161 60.0698 26.7808 60.0384 26.747C59.915 27.1854 60.0881 28.865 60.3434 30.3159L59.9107 30.3879C59.4629 27.8463 59.4477 26.4738 59.8653 26.298C60.1487 26.1794 60.3888 26.495 60.4667 26.5987C60.6506 26.8402 60.7956 27.0456 60.9102 27.2214C60.9838 25.0907 61.2218 23.9639 61.622 23.8728C61.9206 23.8008 62.1001 24.1439 62.1585 24.2541C62.5933 25.0885 62.944 25.9625 63.2057 26.8635C64.7006 23.0341 65.0597 23.1082 65.2393 23.1463C65.5314 23.2078 65.5032 23.6144 65.4881 23.858C65.4206 24.8548 65.281 25.8457 65.0706 26.8233C67.0371 24.6798 67.3357 24.8429 67.4698 24.917C67.7035 25.0441 67.6018 25.3597 67.5693 25.4635C67.2621 26.4124 66.1999 27.7933 65.5422 28.5727C67.4893 27.8717 67.565 28.0072 67.6494 28.1618C67.7619 28.3737 67.5347 28.5219 67.4136 28.6045C66.4508 29.2463 63.5323 31.6015 63.502 31.6248Z" fill="white"/>
<path d="M39.9181 60.5807L35.2494 45.7304L38.1895 44.5298L41.5818 49.4001L41.1383 52.2355L39.9181 60.5807ZM35.7773 45.9697L39.7624 58.6474L40.7056 52.1741L41.1383 49.5017L38.0402 45.0549L35.7773 45.9697Z" fill="white"/>
<path d="M50.1356 56.5534L49.1426 50.1188C48.9543 49.3542 49.0798 49.1932 49.1274 49.1339C49.1518 49.1031 49.1825 49.0776 49.2175 49.059C49.2525 49.0404 49.2911 49.0292 49.3308 49.0259C49.7289 48.9243 54.0255 46.8359 56.8315 45.4507L56.9894 45.3723L59.0122 47.8631L50.1356 56.5534ZM49.4865 49.4178C49.4916 49.626 49.5221 49.8329 49.5774 50.0341V50.0616L50.4428 55.6617L58.4476 47.825L56.8834 45.8997C54.3111 47.1705 50.2676 49.1467 49.4779 49.4178H49.4865ZM49.3589 49.4516C49.3746 49.4548 49.3908 49.4548 49.4065 49.4516C49.3907 49.4538 49.3747 49.4538 49.3589 49.4516Z" fill="white"/>
<path d="M58.5034 22.4017L51.2688 18.7468C50.3537 18.8612 40.8972 19.8691 39.8436 13.2666L40.2763 13.2031C41.3126 19.6912 51.1801 18.3339 51.2796 18.3191H51.3489L58.3953 21.8723L62.058 17.4763L57.1491 12.0448V11.9538C57.5061 7.42438 56.7532 4.43443 54.8515 2.81452C52.8599 1.11904 50.2617 0.267369 47.6286 0.446864C44.9954 0.626359 42.5429 1.82232 40.8107 3.77165C39.0784 5.72097 38.2083 8.26399 38.3917 10.8413C38.5751 13.4185 39.797 15.8189 41.7886 17.5144L41.927 17.6288L41.6479 17.9527L41.5052 17.8342C39.4269 16.0651 38.1518 13.5605 37.9603 10.8712C37.7688 8.18195 38.6766 5.52838 40.484 3.49425C42.2914 1.46012 44.8504 0.212058 47.598 0.0246198C50.3456 -0.162818 53.0567 0.725723 55.1349 2.49478C57.134 4.1888 57.9366 7.27404 57.5883 11.8966L62.6248 17.4763L58.5034 22.4017Z" fill="white"/>
<path d="M47.4124 13.8773H46.9797V11.9054L49.1497 12.4858L47.2372 8.97408L50.5429 11.2001L48.5828 8.21582L51.1725 9.99073L50.8004 8.53141L52.423 8.79616L52.3537 9.21553L51.3802 9.05668L51.8734 10.9862L50.1362 9.79587L52.0703 12.7421L48.453 10.3084L50.0021 13.1508L47.4124 12.4604V13.8773Z" fill="white"/>
<path d="M59.341 24.7928L57.5064 22.9967L62.9432 16.344L64.5896 17.4178L59.341 24.7928ZM58.0862 22.9671L59.2804 24.1362L63.9838 17.5322L63.034 16.9116L58.0862 22.9671Z" fill="white"/>
<path d="M61.0412 25.0986L59.8124 24.0396L64.0484 18.395L65.1799 19.687L61.0412 25.0986ZM60.3922 23.9845L60.972 24.478L64.6217 19.7146L64.0701 19.0791L60.3922 23.9845Z" fill="white"/>
<path d="M58.8271 23.9649L58.4809 23.7128L61.1787 19.8156L58.1737 23.124L57.8492 22.8444L63.0415 17.1257L63.3833 17.3841L61.4686 20.1524L63.4698 17.7675L63.803 18.0344L58.8271 23.9649Z" fill="white"/>
<path d="M61.4288 24.1728L61.0719 23.9335L61.5716 23.1074L60.7841 24.1664L60.4337 23.9165L63.8952 19.2568L64.2565 19.4898L63.0774 21.4426L64.3322 19.8859L64.674 20.1485L61.4288 24.1728Z" fill="white"/>
<path d="M37.2432 72.3188C37.6499 73.6254 23.7216 115.212 23.7216 115.212L28.373 117.395L53.5838 80.772L37.2432 72.3188Z" fill="white"/>
<path d="M30.4291 122C26.3185 120.178 24.1918 119.105 24.0858 118.806V118.62L26.7404 113.494L27.1255 113.687L24.5293 118.689C25.0615 119.079 27.9627 120.447 30.587 121.614L30.4291 122Z" fill="white"/>
<path d="M37.2437 72.3188C38.2086 73.2675 43.6411 117.988 43.6411 117.988L50.4408 117.634L55.4167 75.0716L37.2437 72.3188Z" fill="white"/>
</g>
<defs>
<clipPath id="clip0_0_1">
<rect width="1920" height="10133" fill="white" transform="translate(-1189 -3534)"/>
</clipPath>
</defs>
</svg>
