<svg width="121" height="122" viewBox="0 0 121 122" fill="none" xmlns="http://www.w3.org/2000/svg">
<path d="M44.2862 55.5636L36.6253 58.8015L31.8551 52.6884L31.5078 52.2446L31.9056 51.8455L32.2529 52.2893L36.8018 58.1204L44.0677 55.0499L44.2862 55.5636Z" fill="white"/>
<path d="M46.2212 53.9588C46.7674 53.6546 47.6049 53.1465 48.8402 52.298C49.3808 51.9295 49.6973 51.6839 49.5293 51.3936C49.3976 51.1591 49.2688 50.9386 45.2129 52.7892C45.5027 52.162 45.6918 51.4932 45.7731 50.8074C45.8403 50.2882 45.6442 50.1067 45.4649 50.0453C44.6246 49.7522 42.6415 52.4571 42.2998 53.0321C42.1037 53.3615 41.916 53.7327 42.1625 53.9532L42.5378 53.5401C42.5591 53.5581 42.5763 53.5803 42.5883 53.6053C42.6004 53.6303 42.607 53.6575 42.6079 53.6853C42.6611 53.2079 44.591 50.8437 45.2269 50.598C45.2301 50.6436 45.2301 50.6893 45.2269 50.7348C44.9916 52.5213 44.2773 53.247 44.2717 53.247L43.0336 54.4194L44.5826 53.702C45.7815 53.1437 47.0727 52.5855 47.9971 52.2142C45.8739 53.6322 45.196 53.8639 45.196 53.8667L44.5322 54.0677L44.2745 53.9281L44.4398 54.0956L43.9188 54.2547L44.6919 54.344L45.619 55.2624C46.4576 56.0816 47.2533 56.9434 48.0027 57.8444L47.9747 57.8304C45.5154 56.3957 44.6414 56.0579 44.6134 56.044L44.4146 56.5632C44.4146 56.5632 45.2969 56.9093 47.7002 58.3106C47.9405 58.4795 48.2164 58.5912 48.5069 58.6372C48.5611 58.6384 48.6149 58.6266 48.6637 58.6028C48.7124 58.579 48.7547 58.5439 48.787 58.5004C48.9214 58.3273 49.1399 58.0426 46.6638 55.5164C47.6144 55.5863 48.5692 55.5761 49.5181 55.4857C50.0783 55.4438 50.49 55.3852 50.4956 55.0502C50.476 54.7823 50.4816 54.4948 46.2212 53.9588ZM45.9243 54.7962L45.1372 54.3803H45.2213C46.5882 54.5394 48.0559 54.7516 49.0027 54.9386C46.5854 55.0977 45.9243 54.8046 45.9243 54.8046V54.7962Z" fill="white"/>
<path d="M48.9124 62.0345L37.6886 63.9913L30.8232 53.7302L30.5039 53.2529L30.9073 52.8481L31.2266 53.3227L37.9519 63.38L48.8171 61.4846L48.9124 62.0345Z" fill="white"/>
<path d="M31.0387 27.2886C30.686 26.7696 30.187 26.3662 29.6046 26.1294C29.0222 25.8926 28.3824 25.833 27.766 25.9581C27.1497 26.0832 26.5843 26.3874 26.1411 26.8323C25.698 27.2772 25.3971 27.843 25.2762 28.4581C25.1553 29.0733 25.2199 29.7104 25.4619 30.289C25.7039 30.8676 26.1124 31.3619 26.6359 31.7094C27.1594 32.057 27.7744 32.2422 28.4034 32.2419C29.0325 32.2415 29.6473 32.0555 30.1704 31.7074C30.5214 31.4765 30.8227 31.1782 31.0568 30.83C31.291 30.4818 31.4531 30.0907 31.534 29.6794C31.6148 29.2681 31.6126 28.8448 31.5276 28.4344C31.4426 28.0239 31.2764 27.6344 31.0387 27.2886ZM31.0191 28.9914C31.0345 29.5571 30.8653 30.1126 30.5369 30.5744C30.2085 31.0362 29.7386 31.3794 29.1978 31.5524C28.6571 31.7254 28.0746 31.719 27.5378 31.534C27.001 31.3491 26.5389 30.9956 26.2209 30.5266C26.2034 30.5016 26.1875 30.4755 26.1733 30.4485C26.0708 30.2903 25.9871 30.1207 25.924 29.9432C25.8819 29.8286 25.8482 29.711 25.8232 29.5915C25.7839 29.3977 25.767 29.2001 25.7727 29.0025C25.7761 28.8563 25.7921 28.7106 25.8204 28.5671C25.8847 28.2288 26.0157 27.9066 26.2059 27.6192C26.396 27.3317 26.6414 27.0846 26.9279 26.8923C27.2144 26.6999 27.5364 26.5661 27.8752 26.4985C28.2139 26.431 28.5628 26.431 28.9015 26.4987C29.2415 26.5609 29.5654 26.6905 29.8542 26.8799C30.1429 27.0694 30.3904 27.3146 30.5821 27.6013C30.7407 27.8344 30.86 28.0918 30.9351 28.3633C30.9934 28.5677 31.0245 28.7789 31.0275 28.9914H31.0191Z" fill="white"/>
<path d="M27.7522 48.1355L27.2873 48.448L27.2453 48.3838V48.4815L27.2004 49.1876L27.6038 48.9085L27.7859 48.7885L27.8223 48.2303V48.0852L27.7522 48.1355ZM27.7522 48.1355L27.2873 48.448L27.2453 48.3838V48.4815L27.2004 49.1876L27.6038 48.9085L27.7859 48.7885L27.8223 48.2303L27.7522 48.1355ZM27.1164 50.4183L27.0604 51.3029L27.6626 50.6527L27.7186 49.768L27.1164 50.4183ZM27.615 42.7215L27.5394 43.8936L28.1332 43.3913L28.1976 42.3615L27.615 42.7215ZM24.0633 30.2024L16.9682 34.2629L2.07227 72.2667L2.35237 72.3337L25.8811 78.1941L26.2173 73.0146L26.3349 71.2034L26.3713 70.623L27.1724 58.2629L27.2088 57.6741L27.3601 55.3634L27.3965 54.5876L26.8755 53.9959L26.8251 54.7857L26.7719 55.5643L26.7271 56.2676L26.643 57.5708L26.6038 58.1904L26.3825 61.6062L26.3461 62.1643L25.8139 70.4946L25.7747 71.1113L25.6599 72.8611L25.3602 77.4937L3.70807 72.0937H3.68007L2.82575 71.8816L5.05258 66.1969L5.25986 65.6722L12.3773 47.5131L12.5818 46.9857L17.4164 34.6536L23.8588 30.9615L27.9007 37.5643L27.9427 37.634L27.8923 38.4043L27.8475 39.0964L27.7971 39.875L28.3209 40.4499L28.3713 39.6713L28.4637 38.2229V38.1587L28.5001 37.5866V37.4973L24.0633 30.2024ZM27.1164 50.4183L27.0604 51.3029L27.6626 50.6527L27.7186 49.768L27.1164 50.4183ZM27.3069 52.729L27.5086 53.008L27.5394 52.5615L27.3069 52.729ZM27.4161 54.1243L27.4357 54.1439V54.1048L27.4161 54.1243Z" fill="white"/>
<path d="M36.2131 48.3009L32.2524 52.2916L31.8547 52.6907L31.2244 53.327L30.8211 53.7344L28.2217 56.3521L27.3534 55.367L26.8324 54.7753L15.5918 42.019L16.012 41.6507L25.387 52.2916L25.7596 52.713L26.8828 53.9856L27.4038 54.5772L28.2441 55.5316L30.5018 53.2572L30.9051 52.8525L31.5073 52.247L31.9051 51.8479L35.4428 48.2842L32.667 45.2311L32.4233 44.9632L28.3197 40.4507L27.7959 39.8758L27.3058 39.3344L26.9164 38.9074L23.6168 35.2767L23.3367 34.9697L22.9053 34.4953L23.0958 34.3251L23.3227 34.1213L23.8157 34.6627L23.9921 34.8581L24.9109 35.8683L27.8464 39.0972L28.3702 39.6721L32.891 44.6451L33.0479 44.8181L36.2131 48.3009Z" fill="white"/>
<path d="M2.3418 72.6242L7.03355 84.7275L35.058 83.0782L29.6744 113.751L32.4362 115.537L42.2371 77.5777L23.8762 72.3507L2.3418 72.0745V72.6242Z" fill="white"/>
<path d="M41.1333 121.184H28.918L31.1952 110.119L31.7442 110.231L29.6042 120.626H41.1333V121.184Z" fill="white"/>
<path d="M30.6416 81.0158L2.61719 107.011L6.20813 110.173L36.3026 89.9544L36.7171 80.6028L30.6416 81.0158Z" fill="white"/>
<path d="M9.28827 119.333L0 111.427L8.94654 104.492L9.29107 104.933L0.887931 111.449L9.6524 118.908L9.28827 119.333Z" fill="white"/>
<path d="M34.0879 65.1931V68.1715H86.417V65.1931H34.0879ZM85.8568 67.6132H34.6481V65.7514H85.8568V67.6132Z" fill="white"/>
<path d="M60.5325 68.1208H59.9727V121.864H60.5325V68.1208Z" fill="white"/>
<path d="M110.157 122C109.076 122 1.7816 121.863 0.154193 122L0.109375 121.442C1.75919 121.305 105.734 121.442 110.16 121.442L110.157 122Z" fill="white"/>
<path d="M55.5628 64.1617C55.2966 64.1562 55.031 64.1357 54.7673 64.1003C51.2071 63.6927 48.9719 63.2768 48.9495 63.2629L49.0531 62.7046C49.0727 62.7046 51.294 63.1205 54.8289 63.542C54.0838 63.2629 52.969 62.8804 51.955 62.5706L52.0951 62.0319C52.1147 62.0319 53.9129 62.4003 56.5907 61.6802C55.658 61.6299 54.0026 61.6578 52.3752 61.7304C52.1661 61.7557 51.9554 61.7651 51.7449 61.7583V61.2L52.2827 61.1749C53.4999 61.0287 54.6171 60.4307 55.4115 59.5001C55.4834 59.4236 55.5438 59.3371 55.5908 59.2433C55.1426 59.0953 53.0978 59.6257 51.1819 60.2928C50.9865 60.388 50.7806 60.4601 50.5685 60.5078L50.42 59.9718C50.5993 59.9048 50.7842 59.8378 50.9802 59.7736C51.241 59.6475 51.4576 59.4462 51.6021 59.1958C51.801 58.8162 51.7701 58.3221 51.5096 57.7304C51.3472 57.3591 51.1707 57.3479 51.1147 57.3452C50.378 57.3089 48.9383 59.2545 48.1456 60.6446L47.6582 60.3654C48.0055 59.7541 49.8178 56.7087 51.1427 56.7841C51.406 56.798 51.7729 56.932 52.0222 57.5015C52.3416 58.2244 52.378 58.8553 52.1315 59.3773C53.9746 58.7883 55.728 58.4059 56.0893 58.9251C56.3414 59.2824 55.9689 59.715 55.8457 59.8574C55.4231 60.3542 54.9134 60.7704 54.3415 61.0856C57.7028 61.013 57.7476 61.3145 57.784 61.5266C57.84 61.8644 57.4395 62.0067 56.9437 62.1463C56.0113 62.4259 55.0516 62.6056 54.081 62.6823C56.263 63.4303 56.2154 63.6648 56.1706 63.877C56.1258 64.0891 55.9409 64.1617 55.5628 64.1617Z" fill="white"/>
<path d="M68.6397 64.9268H46.9316V64.3686H68.2952L80.7795 39.4895L81.2809 39.7379L68.6397 64.9268Z" fill="white"/>
<path d="M27.5951 58.1805L12.0969 56.1009L12.1726 55.5482L18.4917 56.394L10.125 54.7527L10.2314 54.2056L27.6876 57.6306L27.5951 58.1805Z" fill="white"/>
<path d="M25.1845 63.6833L8.3418 59.1417L8.46224 58.5974L26.5458 61.6233L26.4534 62.1759L14.0139 60.0936L25.3301 63.1418L25.1845 63.6833Z" fill="white"/>
<path d="M25.34 67.5367L13.6036 65.1975L13.7157 64.6504L16.5615 65.217L7.09961 62.7188L7.24247 62.1772L25.4661 66.9924L25.34 67.5367Z" fill="white"/>
<path d="M26.5897 71.252L8.09163 68.0894L8.18687 67.5395L17.7048 69.1668L4.89844 66.1577L5.02729 65.6162L26.7018 70.7077L26.5897 71.252Z" fill="white"/>
<path d="M23.8609 72.6274L3.8418 71.5276L3.87261 70.9694L16.7994 71.6812L4.37399 70.0119L4.44682 69.4592L23.9113 72.0719L23.8609 72.6274Z" fill="white"/>
<path d="M27.2254 55.9019L26.9061 56.3597L26.7352 56.2564L12.377 47.5111L11.9961 47.2794L12.2874 46.8049L12.5815 46.9835L23.1471 53.4176L14.5927 46.7128L14.9372 46.2717L26.78 55.553L27.2254 55.9019Z" fill="white"/>
<path d="M27.401 39.3333L27.3394 39.3835L19.5973 45.5748L19.2472 45.1365L23.8829 41.4296L18.7514 44.4861L18.4629 44.006L26.9529 38.9509L27.0817 38.8755L27.401 39.3333Z" fill="white"/>
<path d="M29.5792 42.168L28.131 43.3934L27.5372 43.8959L26.4308 44.831L26.005 45.1939L25.8622 45.3139L25.4308 45.6768L22.2628 48.3593L21.9015 47.9322L25.6605 44.7528L26.0891 44.39L26.4028 44.1248L26.0498 44.3425L25.5681 44.6356L21.2629 47.2818L20.9688 46.8073L25.2235 44.1918L25.7025 43.8987L27.6128 42.7235L28.1954 42.3634L29.2514 41.7158L29.5792 42.168Z" fill="white"/>
<path d="M33.0371 44.8015L32.6561 45.2174L29.4573 48.7066L29.0708 49.1253L28.6926 49.5384L28.3005 49.9627L27.6647 50.6578V50.6606L27.0652 51.3137L25.7711 52.7206L25.6255 52.8825L25.2109 52.5057L25.3986 52.3019L27.1185 50.4289V50.4261L27.7179 49.7729V49.7701L27.9812 49.4882L28.3705 49.0611L28.7234 48.6787L29.1072 48.2572L30.0175 47.2635L28.9167 48.0199L28.4517 48.3354L28.0624 48.6061L27.7795 48.7959V48.7987L27.5974 48.9187L27.1969 49.1979L24.5919 50.976L24.2754 50.5182L27.2389 48.4889L27.2865 48.4554L27.7487 48.14L27.8215 48.0897L28.1072 47.8971L28.5722 47.5789L32.4124 44.9494L32.8774 44.6284L33.0371 44.8015Z" fill="white"/>
<path d="M34.4221 48.3449L31.3886 51.1809L30.9769 51.5634L30.4026 52.0993L29.9881 52.4873L27.7949 54.5362L27.4335 54.1482L27.4139 54.1286L27.4363 54.1091V54.1063L29.6744 52.0156L30.0889 51.6276L30.6323 51.1223L30.9685 50.8069L30.5959 51.0721L30.0021 51.4964L29.5455 51.8202H29.5427L27.6296 53.1851L27.5064 53.0121L27.3047 52.7301L27.5372 52.5655L29.2346 51.3568L29.6912 51.033L30.2514 50.6338L30.708 50.3072L34.0692 47.915L34.4221 48.3449Z" fill="white"/>
<path d="M28.4993 38.1891L28.4657 38.2225V38.2253L28.1128 38.5938L27.8943 38.4068L24.914 35.8694L23.8804 34.9901L23.6367 34.7808L23.0989 34.3258L21.4883 32.9524L21.8524 32.5282L24.1241 34.4654L24.2529 34.5742H24.2557L24.1409 34.4542L22.1577 32.383L22.5611 31.9978L24.6199 34.1444L24.6311 34.1555L27.9027 37.5666L28.4713 38.1583L28.4993 38.1891Z" fill="white"/>
<path d="M24.6676 34.1099L24.6283 34.1517L24.253 34.5704H24.2502L23.9925 34.8552L23.8777 34.9864L23.6172 35.2739L17.0431 42.5538L16.6258 42.1825L21.4267 36.8677L16.158 40.262L15.8555 39.7959L23.3371 34.9668L23.634 34.777L23.816 34.6598L24.1214 34.4616L24.1382 34.4504L24.6171 34.1406L24.6676 34.1099Z" fill="white"/>
<path d="M68.7435 37.9644H35.75V38.5226H68.7435V37.9644Z" fill="white"/>
<path d="M44.6801 36.8808L44.2039 36.571C44.1911 36.5877 44.1816 36.6066 44.1759 36.6268C44.3579 35.9208 44.2627 22.5645 44.1562 13.7598V13.4807H47.9013V36.7273H47.341V14.0361H44.7305C44.8565 24.3087 44.9462 36.4845 44.6801 36.8808Z" fill="white"/>
<path d="M50.4879 37.3515L49.9697 37.1394L50.2274 37.2454L49.9613 37.1645C50.1657 36.2352 50.0201 11.1663 49.9473 1.58303V1.30396H53.5634V37.2482H53.0032V1.8593H50.5131C50.5747 10.4044 50.7512 36.7264 50.4879 37.3515Z" fill="white"/>
<path d="M56.247 37.2011L55.782 36.8913C55.7706 36.9088 55.7612 36.9275 55.754 36.9471C55.936 36.2411 55.8436 22.8848 55.7344 14.0801V13.801H59.4738V37.0476H58.9136V14.3592H56.3002C56.4346 24.6262 56.5271 36.8048 56.247 37.2011Z" fill="white"/>
<path d="M84.0683 33.8435C81.2 33.844 78.396 32.9971 76.0109 31.4098C73.6258 29.8225 71.7667 27.5661 70.6688 24.9261C69.5709 22.286 69.2835 19.3809 69.843 16.5781C70.4024 13.7753 71.7835 11.2007 73.8117 9.18006C75.8399 7.15938 78.424 5.78333 81.2371 5.22596C84.0503 4.66859 86.9662 4.95493 89.6161 6.04878C92.2659 7.14262 94.5306 8.99482 96.1238 11.3711C97.717 13.7474 98.567 16.5411 98.5665 19.3988C98.562 23.2284 97.0331 26.8999 94.3151 29.6078C91.5972 32.3158 87.9121 33.839 84.0683 33.8435ZM84.0683 5.50943C81.3109 5.50887 78.6153 6.323 76.3224 7.84884C74.0295 9.37469 72.2422 11.5437 71.1867 14.0816C70.1311 16.6195 69.8546 19.4123 70.3922 22.1067C70.9298 24.8012 72.2573 27.2763 74.2068 29.219C76.1564 31.1618 78.6404 32.4849 81.3447 33.021C84.0491 33.5572 86.8522 33.2823 89.3997 32.2311C91.9472 31.1799 94.1247 29.3997 95.6566 27.1156C97.1886 24.8314 98.0063 22.1459 98.0063 19.3988C98.0018 15.7169 96.532 12.1871 93.9192 9.5834C91.3063 6.97968 87.7638 5.5146 84.0683 5.50943Z" fill="white"/>
<path d="M97.8227 23.6616L81.1621 20.8234L92.9713 8.06714L93.3831 8.44388L82.2741 20.4467L97.918 23.109L97.8227 23.6616Z" fill="white"/>
<path d="M91.9155 23.226L88.9352 16.2102L89.1929 23.1367L88.5963 21.6856C86.4787 16.5451 86.868 16.16 86.9941 16.0316L87.3918 16.4279C87.4078 16.411 87.4202 16.3911 87.4282 16.3693C87.3526 16.6679 87.868 18.2586 88.515 19.9581L88.2629 13.1935L90.9071 19.4279L89.9268 10.9944L93.7978 18.7051C93.6662 17.8539 93.5177 16.7907 93.3608 15.7246C92.6802 10.76 92.9071 10.6288 93.1256 10.5004C93.1847 10.467 93.2527 10.4525 93.3204 10.459C93.3881 10.4655 93.4521 10.4926 93.5037 10.5367C94.1676 11.0669 96.0947 18.9786 96.6689 21.3898L96.1255 21.5209C95.1955 17.6139 94.0751 13.3665 93.4729 11.6837C93.5653 13.3051 94.0779 17.0195 94.6297 20.3907L94.9238 22.1991L90.8511 14.0837L91.9155 23.226Z" fill="white"/>
<path d="M37.8018 7.45676V0H3.44141V10.2168H36.4349C38.1968 11.1154 40.5356 12.3405 40.5693 12.36L41.5832 12.8903L37.8018 7.45676ZM37.659 10.2168L36.5666 9.65863H4.00162V0.558141H37.2416V7.63258L37.8018 8.43909L39.8186 11.3386L37.659 10.2168Z" fill="white"/>
<path d="M37.5435 13.313H8.55273V22.6144H32.7762L36.1878 28.1651L35.7677 22.6144H37.5435V13.313ZM36.9833 22.0563H35.1627L35.2047 22.6144L35.454 25.9046L33.4316 22.6144L33.0899 22.0563H9.11294V13.8711H36.9833V22.0563Z" fill="white"/>
<path d="M82.8945 59.9903L86.928 54.6616V49.009H115.894V57.8437H87.5863L82.8945 59.9903ZM87.4882 49.5673V54.8458L84.6872 58.5583L87.4742 57.2854H115.345V49.5673H87.4882Z" fill="white"/>
<path d="M82.8984 48.6176L86.6686 43.4815V36.4165H121.001V46.1165H88.0327C86.7219 46.7474 85.1113 47.5457 84.3326 47.9309L83.8984 48.143L82.8984 48.6176ZM87.2289 36.9748V43.6741L84.6827 47.1437C85.551 46.7139 86.8003 46.0998 87.8479 45.5945L87.9039 45.5666H120.441V36.9748H87.2289Z" fill="white"/>
<path d="M83.9717 48.091L83.5742 47.6938L83.9745 48.0883L83.9717 48.091Z" fill="white"/>
<path d="M28.7741 31.4054L28.3623 31.0257L30.0429 29.2085C28.3623 29.7333 26.3456 30.3642 26.1635 30.4479C26.1343 30.4673 26.1014 30.4806 26.0669 30.4871C26.0324 30.4935 25.997 30.4929 25.9627 30.4854C25.9284 30.4778 25.896 30.4634 25.8675 30.4431C25.8389 30.4227 25.8148 30.3968 25.7965 30.367C25.6817 30.2023 25.7545 30.0878 25.8778 29.9734L26.0094 29.8729L27.3343 28.8931L25.6845 29.6552L25.4492 29.1499L29.6088 27.2267C29.672 27.1982 29.7435 27.1941 29.8095 27.2152C29.8756 27.2363 29.9314 27.281 29.9663 27.3407C30.0011 27.4005 30.0125 27.471 29.9982 27.5386C29.9839 27.6062 29.945 27.6661 29.8889 27.7068C29.1886 28.2176 28.3147 28.8624 27.592 29.3816C28.4006 29.1248 29.4893 28.7861 30.858 28.3656C30.9168 28.3475 30.9799 28.3491 31.0376 28.3703C31.0953 28.3915 31.1444 28.431 31.1774 28.4828C31.2108 28.5349 31.226 28.5967 31.2204 28.6583C31.2148 28.72 31.1888 28.778 31.1465 28.8233L28.7741 31.4054Z" fill="white"/>
</svg>
