<svg width="125" height="122" viewBox="0 0 125 122" fill="none" xmlns="http://www.w3.org/2000/svg">
<path d="M111.081 0H13.9186C10.2272 0 6.68692 1.43838 4.07667 3.99872C1.46642 6.55906 0 10.0316 0 13.6525C0 17.2734 1.46642 20.7459 4.07667 23.3063C6.68692 25.8666 10.2272 27.305 13.9186 27.305H30.9556L31.1965 27.0424L31.4374 26.7799H13.9186C10.3692 26.7799 6.96506 25.3968 4.45521 22.935C1.94535 20.4731 0.535332 17.1341 0.535332 13.6525C0.535332 10.1709 1.94535 6.83188 4.45521 4.37002C6.96506 1.90815 10.3692 0.525096 13.9186 0.525096H111.081C114.631 0.525096 118.035 1.90815 120.545 4.37002C123.055 6.83188 124.465 10.1709 124.465 13.6525C124.465 17.1341 123.055 20.4731 120.545 22.935C118.035 25.3968 114.631 26.7799 111.081 26.7799H32.227L32.6552 27.305H111.081C114.773 27.305 118.313 25.8666 120.923 23.3063C123.534 20.7459 125 17.2734 125 13.6525C125 10.0316 123.534 6.55906 120.923 3.99872C118.313 1.43838 114.773 0 111.081 0Z" fill="white"/>
<path d="M113.15 122C112.114 122 9.58759 121.871 8.03245 122L7.98962 121.475C9.5635 121.346 108.924 121.475 113.153 121.475L113.15 122Z" fill="white"/>
<path d="M35.8105 20.0329C35.7894 19.9701 35.7644 19.9088 35.7355 19.8491C35.5727 19.4635 35.3436 19.1082 35.0583 18.7986C34.9524 18.6829 34.8388 18.5741 34.7184 18.473C34.6461 18.4126 34.5712 18.3548 34.4962 18.2997C34.0218 17.9574 33.4724 17.7288 32.8918 17.632C32.3113 17.5352 31.7157 17.5729 31.1527 17.7421C30.5896 17.9114 30.0747 18.2074 29.6491 18.6067C29.2234 19.0059 28.8988 19.4973 28.7012 20.0415C28.5036 20.5858 28.4384 21.1678 28.5109 21.7412C28.5834 22.3145 28.7916 22.8633 29.1187 23.3437C29.4459 23.824 29.883 24.2227 30.3952 24.5078C30.9073 24.7929 31.4804 24.9566 32.0685 24.9857H32.2612C32.8674 24.9843 33.4644 24.84 34.0019 24.5648C34.5394 24.2897 35.0016 23.8918 35.3495 23.4047C35.6974 22.9176 35.9209 22.3557 36.0011 21.7661C36.0814 21.1765 36.016 20.5767 35.8105 20.0171V20.0329ZM29.8549 23.4311C29.8147 23.3864 29.7746 23.3418 29.7398 23.2972C29.6275 23.1614 29.5272 23.0164 29.44 22.8638C29.3369 22.6912 29.2535 22.5081 29.1911 22.3176C29.1819 22.2962 29.1738 22.2743 29.167 22.252C29.1456 22.1889 29.1268 22.1233 29.1108 22.0576C29.0878 21.9659 29.0699 21.8729 29.0572 21.7793C28.9656 21.1752 29.053 20.5581 29.309 20.0014C29.5651 19.4448 29.979 18.9721 30.5013 18.6399C31.0236 18.3077 31.6322 18.13 32.2547 18.1278C32.8772 18.1257 33.4871 18.2993 34.0117 18.6279C34.2501 18.7807 34.4685 18.9615 34.6622 19.1663C34.9102 19.4347 35.1094 19.743 35.251 20.0776C35.3212 20.2478 35.3767 20.4235 35.417 20.6028C35.5759 21.2883 35.4989 22.0061 35.1978 22.6441C34.8968 23.2821 34.3889 23.8042 33.7533 24.1289C33.1177 24.4536 32.3905 24.5625 31.6851 24.4386C30.9798 24.3147 30.3362 23.965 29.8549 23.4442V23.4311Z" fill="white"/>
<path d="M36.0369 19.71L35.8121 20.033L35.6194 20.2956L35.4186 20.5793L33.0658 23.938L32.8437 23.7884L32.6322 23.6439L34.4791 21.0178C33.098 21.6612 31.5348 22.4018 30.5953 22.8561C30.1617 23.0662 29.8726 23.2106 29.8083 23.2526L29.7495 23.3052L29.613 23.4233L29.4443 23.2264C29.4187 23.2042 29.3982 23.1769 29.3841 23.1464C29.37 23.1158 29.3628 23.0826 29.3628 23.0491C29.3628 23.0156 29.37 22.9824 29.3841 22.9519C29.3982 22.9213 29.4187 22.894 29.4443 22.8718L29.4631 22.8482C29.5032 22.8036 29.5514 22.7563 29.6049 22.7038L29.7816 22.5305L30.0492 22.2678L31.4143 20.9548L31.5134 20.8603L29.2355 22.3099L29.182 22.344L29.0883 22.4044L28.9438 22.1891L28.8046 21.9816V21.9685L29.0509 21.8109L34.0054 18.6596L34.2489 18.5046L34.4898 18.3497L35.6702 17.5986L34.712 18.523L34.5193 18.7068L34.3265 18.8933L33.7912 19.4185L31.0262 22.0551C32.1585 21.5142 33.7297 20.7815 35.1403 20.1276L35.2527 20.075L35.4936 19.9648L35.7372 19.8518L36.0369 19.71Z" fill="white"/>
<path d="M37.0907 35.3472L37.1094 35.3603L37.0318 34.977L36.9997 34.8142V34.7906L36.4322 31.5061L36.1351 31.1517L32.9981 27.3053L32.7839 27.0428H32.4413L32.6554 27.3053L34.7432 29.8626L35.1421 30.3535L36.1806 31.6269L36.7159 34.7433L36.7802 35.1188L36.8444 35.4942L37.1549 35.7226L37.0907 35.3472ZM37.0907 35.3472L37.1094 35.3603L37.0318 34.977L36.9997 34.8142V34.7906L36.4322 31.5061L36.1351 31.1517L32.9981 27.3053L32.7839 27.0428H32.4413L32.6554 27.3053L34.7432 29.8626L35.1421 30.3535L36.1806 31.6269L36.7159 34.7433L36.7802 35.1188L36.8444 35.4942L37.1549 35.7226L37.0907 35.3472ZM37.0907 35.3472L37.1094 35.3603L37.0318 34.977L36.9997 34.8142V34.7906L36.4322 31.5061L36.1351 31.1517L32.9981 27.3053L32.7839 27.0428H32.4413L32.6554 27.3053L34.7432 29.8626L35.1421 30.3535L36.1806 31.6269L36.7159 34.7433L36.7802 35.1188L36.8444 35.4942L37.1549 35.7226L37.0907 35.3472ZM37.0907 35.3472L37.1094 35.3603L37.0318 34.977L36.9997 34.8142V34.7906L36.4322 31.5061L36.1351 31.1517L32.9981 27.3053L32.7839 27.0428H32.4413L32.6554 27.3053L34.7432 29.8626L35.1421 30.3535L36.1806 31.6269L36.7159 34.7433L36.7802 35.1188L36.8444 35.4942L37.1549 35.7226L37.0907 35.3472ZM42.7545 66.6875L42.5725 65.6373L42.0238 62.366L41.9568 61.9774L39.0741 45.219L39.0179 44.8987L38.9643 44.5757L38.7315 44.812L38.5013 45.0483L38.5575 45.3686L38.611 45.6916L39.869 52.9957L39.9119 53.2582L39.9574 53.5208L40.739 58.0655L40.7818 58.328L40.8246 58.5905L41.459 62.2846L41.4777 62.3791L41.8043 64.2878L41.8498 64.5504L41.8926 64.8129L42.0505 65.7266L42.452 68.0685L42.6956 69.481H42.1415L34.0527 69.3419L23.686 69.1633L21.7962 69.1318L22.7518 62.7493L23.1051 60.3995L23.1426 60.1369V60.1238L23.1828 59.8613L23.3219 58.9292L23.3567 58.7008V58.6667L23.3969 58.4041L24.066 53.9408L24.1035 53.7019V53.6757L24.1437 53.4131L25.1314 46.831L25.1635 46.6157V46.5711L25.2036 46.3086L26.2047 39.6451L26.2823 39.12L26.6035 36.9829L26.6356 36.7623L26.6999 36.3422L26.7481 36.0141L26.7855 35.7515V35.7174L27.4841 31.0703L30.9558 27.3053L31.1967 27.0428L31.4376 26.7803L31.8551 26.3234L32.2272 26.7803L32.6554 27.3053L34.7432 29.8626L35.1421 30.3535L36.1806 31.6269L36.7159 34.7433L36.7802 35.1188L36.8444 35.4942L37.1549 35.7226L37.1844 35.7436L37.2084 35.8644L37.4761 36.0456L37.4601 35.9537L37.3958 35.5782L37.3316 35.2028L37.2593 34.7932V34.7486L36.6972 31.4746L36.6838 31.4063L36.3733 31.0257L36.1351 30.7185L33.3487 27.3053L33.1346 27.0428L32.9204 26.7803L31.8846 25.5095L30.7175 26.7803L30.4766 27.0428L30.2357 27.3053L26.9836 30.8602L25.7202 39.2618L25.6988 39.3957L21.1646 69.6149H21.451H21.4697L33.5147 69.8223L42.0318 69.9667L43.3407 69.9904L42.7545 66.6875ZM37.0907 35.3472L37.1094 35.3603L37.0318 34.977L36.9997 34.8142V34.7906L36.4322 31.5061L36.1351 31.1517L32.9981 27.3053L32.7839 27.0428H32.4413L32.6554 27.3053L34.7432 29.8626L35.1421 30.3535L36.1806 31.6269L36.7159 34.7433L36.7802 35.1188L36.8444 35.4942L37.1549 35.7226L37.0907 35.3472ZM37.0907 35.3472L37.1094 35.3603L37.0318 34.977L36.9997 34.8142V34.7906L36.4322 31.5061L36.1351 31.1517L32.9981 27.3053L32.7839 27.0428H32.4413L32.6554 27.3053L34.7432 29.8626L35.1421 30.3535L36.1806 31.6269L36.7159 34.7433L36.7802 35.1188L36.8444 35.4942L37.1549 35.7226L37.0907 35.3472ZM37.0907 35.3472L37.1094 35.3603L37.0318 34.977L36.9997 34.8142V34.7906L36.4322 31.5061L36.1351 31.1517L32.9981 27.3053L32.7839 27.0428H32.4413L32.6554 27.3053L34.7432 29.8626L35.1421 30.3535L36.1806 31.6269L36.7159 34.7433L36.7802 35.1188L36.8444 35.4942L37.1549 35.7226L37.0907 35.3472ZM37.0907 35.3472L37.1094 35.3603L37.0318 34.977L36.9997 34.8142V34.7906L36.4322 31.5061L36.1351 31.1517L32.9981 27.3053H32.6554L34.7432 29.8626L35.1421 30.3535L36.1806 31.6269L36.7159 34.7433L36.7802 35.1188L36.8444 35.4942L37.1549 35.7226L37.0907 35.3472Z" fill="white"/>
<path d="M33.8698 121.967C28.305 121.652 25.3553 121.342 25.0957 121.043L25.0234 120.822C25.0609 120.457 25.7568 113.732 25.7568 113.732L26.2921 113.784C26.2921 113.784 25.6899 119.591 25.5748 120.704C26.3778 120.922 30.3366 121.229 33.9019 121.439L33.8698 121.967Z" fill="white"/>
<path d="M35.5051 31.4633L35.4543 31.7259L35.4034 31.9885L32.1432 31.3819L31.5517 31.2716L30.9575 31.1613H30.9039L28.8161 30.7726C28.7519 30.7606 28.6944 30.7259 28.6545 30.6751C28.6145 30.6243 28.5949 30.5609 28.5993 30.4969C28.6038 30.4331 28.6318 30.3731 28.6781 30.3281C28.7244 30.2832 28.7859 30.2563 28.8509 30.2526L31.4179 30.1135L32.4885 30.0557L30.4596 29.73L29.314 29.5462L29.3595 29.2836L29.4023 29.021L34.7396 29.8797L34.9939 29.9217C35.0572 29.9318 35.1148 29.9639 35.156 30.0121C35.1973 30.0603 35.2195 30.1214 35.2187 30.1844C35.2135 30.2504 35.1851 30.3125 35.1384 30.3603C35.0915 30.4048 35.0296 30.431 34.9644 30.4338L32.5554 30.5625L31.0592 30.6439L34.2043 31.2295L35.5051 31.4633Z" fill="white"/>
<path d="M30.8482 39.8455L30.4601 39.8297L30.0773 39.8139L26.2042 39.6458H25.9526H25.9338C25.8745 39.6393 25.8191 39.6135 25.7765 39.5726C25.7338 39.5317 25.7063 39.4779 25.6983 39.4199C25.697 39.4076 25.697 39.3953 25.6983 39.3831C25.6993 39.3494 25.7075 39.3163 25.7224 39.2859C25.7417 39.2382 25.7748 39.1971 25.8176 39.1677C25.8604 39.1383 25.9111 39.1219 25.9633 39.1204H26.0034H26.2711L29.5313 39.2517L29.914 39.2675L30.3021 39.2832L30.8482 39.8455Z" fill="white"/>
<path d="M32.9708 42.0098H32.232C30.0532 42.0098 27.7165 42.0098 26.595 41.994C26.5275 41.9942 26.4625 41.9694 26.4129 41.9246C26.3633 41.8798 26.3327 41.8183 26.3273 41.7523C26.3223 41.6874 26.3419 41.6231 26.3825 41.5716C26.423 41.5202 26.4816 41.4853 26.5468 41.4738L30.974 40.7225L31.2898 40.6673L31.6084 40.6147L32.0527 41.0719L31.7368 41.1244L31.4183 41.1796L29.6517 41.4843H32.4569L32.9708 42.0098Z" fill="white"/>
<path d="M33.4814 42.5334L33.1655 42.5859L32.847 42.6411L26.2303 43.7681H26.1848C26.1497 43.771 26.1143 43.7671 26.0807 43.7567C26.047 43.7462 26.0159 43.7293 25.9889 43.707C25.9619 43.6846 25.9397 43.6573 25.9235 43.6266C25.9073 43.5958 25.8974 43.5622 25.8944 43.5277C25.8914 43.4932 25.8954 43.4585 25.9061 43.4255C25.9168 43.3925 25.934 43.3619 25.9567 43.3354C25.9794 43.309 26.0073 43.2871 26.0386 43.2712C26.0699 43.2553 26.1042 43.2456 26.1393 43.2427L31.5248 42.3311L32.3947 42.1839L32.7132 42.1314L33.0317 42.0789L33.4814 42.5334Z" fill="white"/>
<path d="M35.9689 48.4904L38.394 48.6506L38.3752 48.9132L38.3592 49.1758L25.9207 48.3565L25.9181 47.8313L30.1606 47.4715H30.1632L34.114 47.1353L26.7264 46.8675H26.7237L25.1311 46.8097L24.8608 46.7992H24.8447L24.8554 46.5392L24.8635 46.2766L24.9384 46.2792L25.2087 46.2897L36.8121 46.7073L37.1948 46.7204L37.1975 46.723H37.2162L37.5749 46.7362L38.4689 46.7677L38.4823 47.2903L32.1841 47.826L29.4325 48.0597L35.9662 48.4904H35.9689Z" fill="white"/>
<path d="M31.8564 54.6528L28.5908 55.1097L37.0491 55.3041H37.0571L39.6321 55.3645L39.6267 55.6271L39.6214 55.8897L25.3494 55.5614L25.3173 55.0388L29.8569 54.4033H29.8623L35.3548 53.6312L25.6786 53.8781H25.676L24.0619 53.9201L23.9415 53.9227L23.9361 53.6601L23.9281 53.3975L24.1422 53.3923L39.8542 52.9931L39.9533 52.9905L39.9988 53.5131L39.9452 53.521L31.8564 54.6528Z" fill="white"/>
<path d="M31.9349 59.4432C30.1951 59.614 28.5489 59.7795 27.1651 59.9188C30.0398 59.9345 34.02 59.9424 37.6228 59.945H40.6287V60.4705C38.9129 60.4705 24.0655 60.4705 23.0939 60.3864H23.0564L22.8289 60.3496V60.1237C22.8289 60.0501 22.8289 59.9976 22.8958 59.9529C22.9824 59.9008 23.079 59.8668 23.1795 59.8531C23.5436 59.7795 24.293 59.7007 25.8375 59.5378C26.7261 59.4432 27.8262 59.3329 29.1244 59.2015L31.9242 58.9388L34.0039 58.7365L25.4922 58.8942L23.3241 58.9336H23.0564H23.0189V58.4082H23.1287H23.3963L40.7304 58.0876H40.7946L40.8241 58.6131C38.1474 58.8758 34.906 59.1805 31.9456 59.4695L31.9349 59.4432Z" fill="white"/>
<path d="M22.3646 67.8428L22.3084 67.3228L38.8127 64.7597L22.8464 64.4866L22.8357 63.9614L41.5322 62.9792L41.5616 63.5045L30.3839 64.0901L41.8855 64.2897L41.923 64.8096L27.6938 67.0182L41.2806 66.254L41.3127 66.7792L22.3646 67.8428Z" fill="white"/>
<path d="M75.7975 105.36L73.3671 107.812L72.9923 108.19L71.3462 109.852C71.3462 109.852 52.0047 95.6405 38.4474 86.0312L31.4559 117.437L23.0405 117.043C23.0405 117.043 22.4838 71.0371 21.4131 69.5747L22.2161 62.7485H22.4704H22.7381L41.3462 62.3888L41.4479 62.2917L41.6835 62.0685L41.8682 61.8926L41.9404 61.9845L75.7975 105.36Z" fill="white"/>
<path d="M75.796 110.855L75.5765 110.769L70.4908 105.69L70.8736 105.322L75.8388 110.272C76.5133 109.813 79.297 107.019 81.7275 104.456L82.1209 104.815C78.3227 108.82 76.1948 110.85 75.796 110.855Z" fill="white"/>
<path d="M13.6516 5.77588H13.1166V22.3164H13.6516V5.77588Z" fill="white"/>
<path d="M109.475 5.5127C108.122 5.51352 106.801 5.91685 105.686 6.66945C104.571 7.42205 103.715 8.48854 103.231 9.72817C102.747 10.9678 102.657 12.3223 102.974 13.6129C103.291 14.9035 103.999 16.0696 105.005 16.9572L99.3576 24.2586L99.5717 24.4161L99.7858 24.5737L105.407 17.2906C106.251 17.9238 107.237 18.3506 108.283 18.5357C109.329 18.7209 110.404 18.659 111.421 18.3553C112.438 18.0515 113.366 17.5147 114.129 16.7891C114.892 16.0635 115.468 15.1701 115.809 14.1828C116.15 13.1955 116.246 12.1427 116.09 11.1116C115.934 10.0804 115.53 9.10066 114.911 8.25331C114.292 7.40596 113.476 6.7154 112.531 6.23882C111.585 5.76224 110.538 5.51333 109.475 5.5127ZM109.475 18.115C108.258 18.115 107.067 17.7608 106.055 17.0973C105.043 16.4338 104.254 15.4907 103.788 14.3873C103.322 13.2839 103.2 12.0697 103.437 10.8983C103.675 9.72695 104.261 8.65097 105.122 7.80646C105.983 6.96194 107.08 6.38682 108.274 6.15382C109.469 5.92082 110.706 6.04041 111.831 6.49745C112.956 6.9545 113.918 7.72848 114.594 8.72152C115.271 9.71457 115.632 10.8821 115.632 12.0764C115.632 13.6779 114.983 15.2139 113.829 16.3463C112.674 17.4788 111.108 18.115 109.475 18.115Z" fill="white"/>
<path d="M65.8669 43.8611L46.7154 45.4288L46.6405 45.3816L42.0473 42.4587L41.8225 42.3169L41.595 42.1698L41.967 41.7891L42.1919 41.9335L42.4221 42.0753L46.8519 44.8984L65.8241 43.3385L65.8669 43.8611Z" fill="white"/>
<path d="M69.6419 49.5391C69.4769 49.5101 69.3273 49.4256 69.219 49.3001C68.1832 48.3363 64.5429 45.4397 64.5054 45.4108L64.8427 45.0038C64.9712 45.1036 67.5194 47.1414 68.9487 48.3547C68.6382 47.8295 68.2073 47.1283 67.7924 46.4928L67.2008 45.5842L68.151 46.1225C68.1858 46.1409 71.347 47.9214 73.0841 48.1682C72.5327 47.6929 71.0097 46.7528 69.6366 45.9965L68.5659 45.4003L69.7999 45.5054C71.3853 45.5946 72.9759 45.5295 74.5483 45.311H74.5938C73.7238 45.0117 71.4755 44.5731 69.4064 44.2606L68.4963 44.1188L69.3395 43.759C70.6375 43.1795 71.8627 42.4542 72.9904 41.5977C73.0327 41.5641 73.0729 41.5282 73.1109 41.4901C72.5622 41.3404 70.3968 41.5925 68.4374 41.9523C68.355 41.9967 68.2636 42.0227 68.1698 42.0284C68.1214 42.0341 68.0724 42.0293 68.0261 42.0143C67.9798 41.9994 67.9375 41.9746 67.9021 41.9417L67.5247 41.5925L68.0333 41.4953L68.2608 41.4507C68.4401 41.3535 68.8416 41.0646 69.5991 40.2269C69.6385 40.1854 69.6751 40.1416 69.7089 40.0956C69.1387 40.0588 67.0938 40.6838 65.3646 41.343L65.1692 40.8545C68.2046 39.6938 69.9043 39.334 70.2228 39.7857C70.4423 40.093 70.1077 40.458 70.0006 40.5736C69.7463 40.8493 69.5295 41.0725 69.3395 41.2537C71.9974 40.8125 73.4482 40.8178 73.6623 41.2695C73.8229 41.6082 73.4455 41.905 73.3223 42.0022C72.3887 42.7179 71.3865 43.3432 70.3298 43.8693C75.4449 44.6965 75.4396 45.1456 75.4369 45.3662C75.4369 45.7286 74.923 45.7969 74.6152 45.8389C73.3681 46.006 72.1104 46.0849 70.8518 46.0752C73.9915 47.8846 73.863 48.2785 73.7961 48.4571C73.6971 48.767 73.2822 48.7197 73.1457 48.7197C71.893 48.591 69.9337 47.6693 68.7908 47.081C70.1452 49.2239 69.9926 49.3474 69.824 49.4865C69.7709 49.5233 69.7069 49.5417 69.6419 49.5391Z" fill="white"/>
<path d="M44.0306 40.1391L42.1623 42.0478L41.7849 42.4338L39.0601 45.2168L38.8299 45.4531L38.597 45.6894L37.5745 46.7369L37.3256 46.989L37.2051 47.1124L37.0767 46.9811L36.8117 46.708L32.8475 42.6517L32.4005 42.1922L32.2319 42.0216L31.718 41.4938L31.4209 41.1919L30.9766 40.7351L30.0772 39.8135L29.5419 39.2648L27.5504 37.2274L27.3122 36.9833L27.2373 36.9071L27.074 36.7417L26.6993 36.3558L26.4637 36.1142L26.445 36.0959L26.4691 36.0722H26.4717L26.6377 35.9147L26.7849 35.7782L26.8331 35.7335L27.7619 36.684L27.8502 36.7759L28.0001 36.9281L28.2383 37.1723L30.3127 39.2963L30.8481 39.845L31.6109 40.6274L32.0553 41.0843L32.4568 41.4938L32.9707 42.0189L33.0376 42.0872L33.4819 42.544L37.2051 46.3562L38.4873 45.0461L38.7175 44.8098L38.9503 44.5735L41.3272 42.1423L41.7046 41.759L43.2276 40.2021L38.5007 36.7155L38.4926 36.7102L37.4675 35.9541L37.1837 35.744L37.1543 35.723L36.8438 35.4946L36.4209 35.1822L36.1666 34.9932L36.0809 34.9328L35.7437 34.6833H35.7383L30.9525 31.1495L30.9311 31.1337L31.0917 30.9237L31.1024 30.9105L31.2523 30.7136L31.6564 31.0129L31.6591 31.0156L32.1409 31.37L32.1436 31.3726L36.7153 34.7437L37.0258 34.9722L37.0312 34.9748V34.9774L37.339 35.2032L37.3497 35.2111L37.6682 35.4447V35.4474L38.8219 36.298L38.8352 36.3059L39.6864 36.936L39.9059 37.0962L44.0306 40.1391Z" fill="white"/>
<path d="M37.2508 33.3367L37.256 33.3578L37.2428 33.3446L37.2508 33.3367Z" fill="white"/>
<path d="M44.3522 26.957L44.2692 27.041L44.0069 27.3036L41.5229 29.7906L41.3302 29.9849L41.1375 30.1766L40.6744 29.9087L40.8672 29.7144L41.0599 29.5227L43.2735 27.3036L43.5358 27.041L43.7981 26.7784L43.9774 26.5999L44.3522 26.957Z" fill="white"/>
<path d="M41.5226 29.7912L41.0595 29.5286L38.8566 28.2471L36.1344 30.7182L36.0193 30.8233L36.1398 31.141L36.4315 31.9131L36.999 34.7782V34.8018L37.0311 34.9646L37.1088 35.3481L37.1837 35.7315L37.2078 35.8523L37.4755 36.0335L38.4845 36.6979L39.5124 37.3754L39.6757 37.2493L39.8898 37.0787L45.9444 32.3517L41.5226 29.7912ZM38.8459 36.3066L37.7137 35.5608L37.6923 35.4557L37.2801 33.368V33.347L36.9374 31.8028L36.6403 30.9808L38.9262 28.8931L40.6741 29.9094L41.1371 30.172L45.0183 32.4304L39.5017 36.7583L38.8459 36.3066Z" fill="white"/>
</svg>
