<svg width="124" height="123" viewBox="0 0 124 123" fill="none" xmlns="http://www.w3.org/2000/svg">
<path d="M6.67253 80.1684L6.12891 80.0646C7.21615 74.6323 7.9582 71.7657 8.3034 71.5475L8.53987 71.5076L15.7266 73.2216L15.5961 73.7406L8.60239 72.0718C8.25719 72.8224 7.37652 76.687 6.67253 80.1684Z" fill="white"/>
<path d="M46.9393 81.7543L46.7871 81.9991L46.6376 82.2439L40.1903 92.6908L11.9219 78.0556L13.3163 73.1993L13.4658 72.6858L14.3682 69.5405L38.2876 74.8624L39.1193 72.4623L39.2253 72.1589V72.1562L39.3313 71.8502L46.9393 81.7543Z" fill="white"/>
<path d="M106.784 122.457C105.735 122.457 1.62 121.618 0.0407721 121.736L0 121.203C1.60369 121.083 102.495 121.887 106.789 121.922L106.784 122.457Z" fill="white"/>
<path d="M61.4886 12.6885C61.4668 12.6246 61.4424 12.5607 61.4152 12.4995C61.2514 12.1097 61.0217 11.7498 60.7356 11.4349C60.629 11.3176 60.5146 11.2073 60.3932 11.1048C60.322 11.0417 60.2476 10.9822 60.1703 10.9265C59.691 10.5758 59.1346 10.3397 58.5455 10.2372C57.9564 10.1346 57.351 10.1685 56.7777 10.336C56.2043 10.5035 55.679 10.8001 55.2436 11.2019C54.8082 11.6038 54.4749 12.0998 54.2703 12.6504C54.0657 13.2009 53.9955 13.7907 54.0652 14.3726C54.135 14.9545 54.3428 15.5123 54.6721 16.0015C55.0014 16.4906 55.443 16.8976 55.9616 17.1898C56.4801 17.482 57.0614 17.6513 57.6587 17.6843H57.8789C58.4922 17.6834 59.0963 17.5385 59.6405 17.2618C60.1848 16.9851 60.6534 16.5846 61.0069 16.094C61.3605 15.6033 61.5888 15.0368 61.6726 14.4419C61.7564 13.8471 61.6933 13.2412 61.4886 12.6752V12.6885ZM60.067 16.3455C59.7442 16.6272 59.3677 16.8439 58.9593 16.983C58.5508 17.1222 58.1184 17.1811 57.6866 17.1564C57.2549 17.1316 56.8324 17.0238 56.4433 16.839C56.0542 16.6542 55.7061 16.396 55.419 16.0793C55.3782 16.0341 55.3375 15.9888 55.3021 15.9409C55.1883 15.8052 55.0882 15.659 55.0031 15.5044C54.9011 15.3282 54.8165 15.1428 54.7504 14.9508C54.7444 14.9265 54.7371 14.9025 54.7286 14.8789C54.7069 14.8151 54.6906 14.7512 54.6743 14.6846C54.6525 14.5915 54.6335 14.4983 54.6199 14.4052C54.5502 13.9467 54.5825 13.4788 54.7146 13.0337C54.8466 12.5885 55.0754 12.1766 55.3851 11.826C55.6948 11.4754 56.0783 11.1945 56.5092 11.0025C56.9401 10.8105 57.4082 10.712 57.8816 10.7136C57.9441 10.7136 58.0094 10.7136 58.0719 10.7136C58.6489 10.7468 59.2064 10.9306 59.6865 11.2459C59.8009 11.318 59.9099 11.398 60.0126 11.4854C60.1258 11.5829 60.2321 11.6878 60.3306 11.7995C60.5822 12.0727 60.7828 12.3871 60.9232 12.7284C60.9956 12.9003 61.0511 13.0785 61.089 13.2607C61.212 13.8175 61.1822 14.3962 61.0027 14.938C60.8232 15.4798 60.5003 15.9654 60.067 16.3455Z" fill="white"/>
<path d="M61.4879 12.6875L61.0883 13.2491L58.6719 16.6346L58.2289 16.3232L60.1315 13.6616C58.0685 14.6012 55.576 15.7537 55.3721 15.8841L55.3123 15.9346L55.1737 16.0571L55.0052 15.8548C54.9788 15.8328 54.9576 15.8055 54.9431 15.7747C54.9286 15.7439 54.9211 15.7104 54.9211 15.6765C54.9211 15.6426 54.9286 15.609 54.9431 15.5782C54.9576 15.5475 54.9788 15.5201 55.0052 15.4981L55.0242 15.4742H55.0378C55.0829 15.4227 55.131 15.3739 55.1819 15.3278L55.6412 14.8886L57.0356 13.5578L57.1362 13.462L54.7551 14.9525L54.6627 15.0111L54.3691 14.5639L54.6246 14.4042L59.6803 11.2369L60.175 10.9255C60.2524 10.9812 60.3268 11.0408 60.3979 11.1039L60.0065 11.4765L59.4439 12.0088C58.5741 12.8339 57.4596 13.8932 56.6225 14.6943C57.7776 14.162 59.3786 13.4221 60.8138 12.77L60.9279 12.7168L61.4199 12.4932C61.4417 12.5597 61.4661 12.6236 61.4879 12.6875Z" fill="white"/>
<path d="M52.3259 29.5725V29.5938L52.2933 29.7827V29.8093L52.3286 29.5938V29.5725L52.3504 29.4235L52.3259 29.5725ZM62.9265 26.3022L62.8776 25.9962L62.845 25.8046L62.7363 25.1367V25.1021L62.6004 24.2879V24.2187L61.119 22.4438L60.6977 21.9116L60.6814 21.893L59.9312 20.9643L59.673 20.6424L59.4637 20.3763L59.4392 20.3443L57.7295 18.2156L52.72 23.604L52.6548 24.0218V24.083L52.6113 24.365L52.5678 24.6471L52.0242 28.1063L51.9753 28.4044L51.7306 29.9717L51.5377 31.1851V31.2729L51.4289 31.9621V32.0286L51.4153 32.1111L51.3936 32.2521L51.3583 32.4836L50.8989 35.3814L50.8608 35.6262L50.801 36.02L50.7793 36.1637L51.0946 35.8976L51.4072 35.6475L51.4289 35.5038L51.4887 35.11L51.5295 34.8598L51.9019 32.4969V32.4836L51.9807 31.97V31.9567L52.2743 30.0941L52.3232 29.7934L52.3585 29.5778V29.5566L52.3803 29.4075L53.2419 23.9419L53.2609 23.8222L54.8918 22.0713L55.1826 21.7573L57.7322 19.0165L58.7135 20.2352L58.7379 20.2672L59.2027 20.8419L60.3117 22.2176L60.6352 22.6195L60.6868 22.6833L60.8363 22.8696L61.032 23.1064L62.0785 24.4076L62.3666 26.1612L62.3992 26.3501L62.4509 26.6561L62.4699 26.7652L62.7145 26.571L62.9537 26.3794L62.9265 26.3022Z" fill="white"/>
<path d="M60.4388 115.282C58.4682 115.282 57.3918 115.199 57.2233 115.04L57.1309 114.824L57.1798 107.606H57.7234L57.6745 114.654C58.4899 114.8 62.5399 114.747 66.1632 114.616L66.1849 115.149C63.7966 115.236 61.8812 115.28 60.4388 115.282Z" fill="white"/>
<path d="M61.0994 24.265L61.0478 24.5312L60.9934 24.7973L54.3069 23.5065C54.2348 23.5012 54.1678 23.468 54.1206 23.4144C54.0735 23.3607 54.05 23.2909 54.0555 23.2203C54.0609 23.1497 54.0947 23.0841 54.1495 23.038C54.2043 22.9918 54.2756 22.9688 54.3476 22.9741L56.9598 22.8517L58.047 22.8011L55.9948 22.4578L54.8287 22.2608L54.875 21.9947L54.9212 21.7285L60.3356 22.6361L60.5912 22.6787C60.655 22.6895 60.7128 22.7222 60.7541 22.771C60.7955 22.8198 60.8177 22.8815 60.8168 22.9449C60.8123 23.0104 60.7833 23.072 60.7352 23.1179C60.688 23.1639 60.6251 23.1914 60.5585 23.195L58.1122 23.3068L56.5874 23.3787L59.7893 23.9962L61.0994 24.265Z" fill="white"/>
<path d="M61.5464 27.5222L61.2012 27.799L60.9267 28.0173L60.8533 28.0785L60.6005 28.0865L60.4048 28.0918L59.9563 28.1051L57.0344 28.2009L58.9289 28.4325L59.4698 28.4964L59.8422 28.5416L60.2146 28.5895L59.9264 28.8211L59.3094 29.3135L58.9398 29.6089L58.4668 29.6462L57.9911 29.6808L52.0466 30.1252L52.0249 29.8591L52.0222 29.8085L52.0194 29.7819L52.0059 29.5956L52.0521 29.5929H52.0575L54.0309 29.4439L58.725 29.0925L59.2007 29.0579L59.4834 29.0367L59.2605 29.01L58.8854 28.9648L57.2953 28.7705L53.5307 28.31L53.5552 27.7777L60.6495 27.5515L61.098 27.5355L61.5464 27.5222Z" fill="white"/>
<path d="M52.7367 34.2343L53.2803 34.1465L52.3453 34.8973H51.9811H51.9294C51.8818 34.8874 51.8377 34.8652 51.8018 34.8328C51.766 34.8005 51.7396 34.7593 51.7256 34.7136C51.7243 34.695 51.7243 34.6763 51.7256 34.6577C51.7206 34.5916 51.7409 34.526 51.7826 34.4738C51.8244 34.4216 51.8845 34.3866 51.9512 34.3755L52.223 34.3329L52.7367 34.2343Z" fill="white"/>
<path d="M55.7428 32.1716L55.1149 32.6722L54.7099 32.6536L54.3049 32.6349L51.5868 32.5071L51.3313 32.4938H51.334C51.2734 32.4871 51.2168 32.4606 51.1735 32.4186C51.1301 32.3766 51.1024 32.3215 51.0948 32.2622C51.0934 32.248 51.0934 32.2337 51.0948 32.2196C51.0959 32.1854 51.1042 32.1519 51.1193 32.1211C51.1423 32.0736 51.179 32.0339 51.225 32.0069C51.2709 31.9799 51.324 31.9668 51.3775 31.9693H51.4183H51.6901L54.9518 32.1211L55.3568 32.1424L55.7428 32.1716Z" fill="white"/>
<path d="M55.9544 93.49L66.6121 84.0862L66.5632 84.488L66.5143 84.8898L63.2933 110.807L57.6886 111.074L57.1449 111.098L54.7476 111.207C54.7476 111.207 53.6005 101.172 52.1844 89.4906C52.1654 89.3176 52.1436 89.142 52.1219 88.9584L52.0566 88.4262L55.9544 93.49Z" fill="white"/>
<path d="M123.516 34.6004L123.315 34.7786L66.5202 84.8924L55.8842 94.2775L52.1957 89.4798L46.6372 82.2447L39.1189 72.4631L25.9551 55.3372L26.1589 55.1748L42.9188 41.753L44.1556 40.7605L50.554 35.6355L50.8639 35.3907V35.388L50.8693 35.3853L51.1819 35.1326L51.4945 34.8824L51.7201 34.7015L52.1957 34.321L54.305 32.6339L54.9302 32.131L57.9908 29.6803L58.3604 29.3849L58.7247 29.0922L58.885 28.9645L59.1786 28.7276L59.4694 28.4961L59.7684 28.2567L59.956 28.105L60.3039 27.8282L60.6491 27.5515L62.106 26.3833L62.3452 26.1944V26.1918H62.3479L62.5925 25.9948L62.8317 25.8033L63.5439 25.2338L63.8347 24.9996L64.5333 24.4408L65.2209 23.89L66.0744 23.2062L66.2701 23.0492L95.0495 0L105.925 13.1744L105.713 13.342L105.503 13.5097L104.71 12.5491L94.9707 0.75305L62.9323 26.4126L62.6931 26.6042L62.4485 26.7984L62.2066 26.9927L61.5461 27.5222L61.2009 27.799L60.9263 28.0172L60.8529 28.0784L60.2142 28.5893L59.9261 28.8208L59.309 29.3131L58.9394 29.6084L55.7429 32.1709L55.115 32.6712L53.2748 34.1453L52.3398 34.8957L51.3722 35.6701L51.0596 35.9202L50.7443 36.173L50.4317 36.4231L43.3347 42.1069L42.0979 43.0968L26.7053 55.425L39.3309 71.851L46.9389 81.7551L52.068 88.4288L55.9603 93.4926L66.6181 84.0887L122.75 34.5604L97.9035 7.50122L98.3058 7.14465L99.4393 8.37934L123.516 34.6004Z" fill="white"/>
<path d="M90.7469 33.4783C88.0259 30.2782 84.2747 28.0785 80.1087 27.2401C75.9428 26.4017 71.6094 26.9744 67.8196 28.8642C67.3539 29.0966 66.9009 29.3494 66.4605 29.6226C66.1887 29.7849 65.9332 29.9526 65.675 30.1282L65.444 30.2905H65.4277L65.183 30.4661C64.9112 30.6657 64.6394 30.8759 64.3676 31.0941C64.0958 31.3123 63.824 31.5465 63.5712 31.7806C63.4924 31.8525 63.4108 31.927 63.332 32.0042L63.0955 32.2303C63.0058 32.3182 62.9161 32.406 62.8237 32.4964C62.7313 32.5869 62.6905 32.6321 62.6253 32.704C62.4568 32.877 62.2937 33.0552 62.1387 33.2362C61.9838 33.4171 61.7772 33.654 61.5951 33.8695C61.413 34.085 61.3233 34.2287 61.1793 34.4017C60.9835 34.6678 60.796 34.9339 60.6193 35.2C59.7242 36.5497 59.0167 38.0101 58.5155 39.5426C58.4856 39.6278 58.4584 39.7156 58.4285 39.8087C58.3986 39.9019 58.3769 39.9844 58.3524 40.0748C58.328 40.1653 58.3198 40.1759 58.3062 40.2292C58.2926 40.2824 58.2546 40.4101 58.2328 40.4953C58.2111 40.5804 58.1812 40.6762 58.1594 40.7614L58.1268 40.8944C58.0969 41.0115 58.0697 41.1312 58.0425 41.2536C58.0154 41.376 58.0045 41.4293 57.9882 41.5197C57.9719 41.6102 57.9501 41.6954 57.9338 41.7858C57.6507 43.2533 57.5512 44.7492 57.6376 46.2403C57.6376 46.3281 57.6376 46.4185 57.6566 46.5064C57.6756 46.5942 57.6566 46.6846 57.6756 46.7724L57.7082 47.1237L57.7408 47.3898L57.7735 47.6559C57.7735 47.7038 57.7735 47.749 57.7952 47.7996C57.8169 47.9592 57.8441 48.1215 57.8713 48.2839L57.9202 48.55C57.9365 48.6404 57.9556 48.7309 57.9719 48.8161C58.1468 49.6686 58.383 50.508 58.6786 51.328C58.7112 51.4185 58.7438 51.5063 58.7792 51.5941C58.8145 51.6819 58.8471 51.7697 58.8824 51.8602C58.8857 51.8739 58.8903 51.8872 58.896 51.9001L59.002 52.1662C59.0374 52.254 59.0754 52.3392 59.1135 52.4323C59.1515 52.5254 59.2168 52.6665 59.2711 52.7835C59.3255 52.9006 59.3744 53.0071 59.4288 53.1162C59.4832 53.2253 59.5158 53.2944 59.5647 53.3822C59.6136 53.4701 59.6544 53.5632 59.7033 53.6483C60.1306 54.458 60.6204 55.2346 61.1684 55.9714C61.2961 56.1443 61.4402 56.3173 61.5652 56.4876C61.6332 56.5727 61.7011 56.6605 61.7745 56.7537L61.9295 56.94L61.992 57.0118C62.1224 57.1635 62.2638 57.3125 62.3888 57.4588L62.6416 57.7249C62.7313 57.8154 62.8183 57.9059 62.9134 57.991C63.0085 58.0762 63.0466 58.1267 63.1145 58.1879C63.1825 58.2491 63.2749 58.3476 63.3565 58.4221C63.438 58.4966 63.5223 58.5791 63.6065 58.6536C63.9925 59.0084 64.3893 59.3401 64.7971 59.6488L65.1314 59.8989L65.4793 60.1491C65.6805 60.2874 65.8816 60.4151 66.0854 60.5509C66.1095 60.5687 66.135 60.5847 66.1616 60.5988C66.7311 60.9608 67.3209 61.2913 67.9283 61.5886L68.2273 61.7323L68.5263 61.868C68.7981 61.9878 69.0699 62.1022 69.3417 62.2086C71.5713 63.0856 73.9516 63.5372 76.3545 63.5391C80.1999 63.547 83.9538 62.3908 87.1019 60.2289C87.5151 59.945 87.9182 59.6426 88.3115 59.3215C88.9534 58.7992 89.5591 58.2356 90.1244 57.6345C93.1964 54.3634 94.9525 50.1128 95.0669 45.6708C95.1814 41.2288 93.6465 36.8968 90.7469 33.4783ZM94.4571 46.839C94.3258 48.2511 94.0228 49.6429 93.5547 50.9847C93.5003 51.1471 93.4433 51.304 93.3835 51.4637C91.7938 55.5979 88.693 59.0071 84.682 61.0306C80.6711 63.0542 76.0355 63.5479 71.6739 62.4162C71.576 62.3922 71.4809 62.3683 71.3858 62.339H71.3477C71.2417 62.3124 71.1384 62.2831 71.0351 62.2512C70.4915 62.0889 69.9479 61.9 69.4043 61.6844C69.1705 61.5904 68.9395 61.4919 68.7111 61.3891L68.4176 61.256L68.1186 61.1097C68.018 61.0618 67.9202 61.0112 67.8223 60.958C67.4065 60.7451 67.0069 60.5136 66.5965 60.2661L66.3817 60.1278C66.3515 60.111 66.3225 60.0924 66.2947 60.0719C66.26 60.0525 66.2264 60.0312 66.1942 60.008C66.1317 59.9681 66.0664 59.9255 66.0039 59.8803C65.9468 59.843 65.8925 59.8058 65.8354 59.7632C65.7783 59.7206 65.7076 59.6781 65.6451 59.6302C65.1792 59.2982 64.731 58.9429 64.3024 58.5658C64.2127 58.4939 64.1257 58.4168 64.0306 58.337C63.9354 58.2571 63.8593 58.1826 63.775 58.1054L63.6935 58.0256C63.5984 57.9378 63.5032 57.8447 63.4217 57.7595C63.3402 57.6744 63.2396 57.5786 63.1499 57.4934C62.9895 57.3311 62.8346 57.1661 62.6824 56.9958C62.6063 56.9107 62.5302 56.8255 62.4595 56.7297C62.4214 56.6898 62.3861 56.6499 62.3508 56.6073L62.2393 56.4743C62.1387 56.3545 62.0409 56.2321 61.943 56.1097C61.3318 55.3417 60.7863 54.5255 60.3122 53.6696C60.2632 53.5818 60.2143 53.4914 60.1681 53.4035C60.1219 53.3157 60.073 53.2279 60.0295 53.1374C59.986 53.047 59.9344 52.9512 59.8909 52.858C59.8148 52.7037 59.7441 52.5494 59.6761 52.395C59.6363 52.3099 59.5982 52.2212 59.562 52.1289C59.4895 51.9515 59.4188 51.7786 59.35 51.6101C59.3146 51.5222 59.2793 51.4344 59.2494 51.344C58.9442 50.5327 58.7016 49.7001 58.5237 48.8533C58.5046 48.7628 58.4856 48.675 58.4693 48.5872C58.453 48.4994 58.434 48.4089 58.4176 48.3211C58.3932 48.1801 58.3687 48.0364 58.347 47.8954C58.3334 47.7969 58.3171 47.7011 58.3062 47.6053C58.2953 47.5095 58.2817 47.4297 58.2736 47.3392C58.2654 47.2488 58.2491 47.1609 58.241 47.0731C58.2328 46.9853 58.2219 46.8789 58.2138 46.7831C58.2056 46.6873 58.1975 46.6048 58.192 46.517C58.1866 46.4292 58.1785 46.3414 58.173 46.2509C58.0866 44.7766 58.1861 43.2975 58.4693 41.847C58.4883 41.7592 58.5046 41.6714 58.5237 41.5809C58.5427 41.4905 58.5617 41.4053 58.5835 41.3148C58.6052 41.2244 58.6269 41.1126 58.6541 41.0115C58.6813 40.9104 58.6976 40.8279 58.7248 40.7454C58.752 40.6629 58.771 40.5618 58.7982 40.4793C58.8254 40.3968 58.8498 40.2983 58.877 40.2132L58.9015 40.128C58.9287 40.0402 58.9558 39.9524 58.9857 39.862C59.0156 39.7715 59.0401 39.6863 59.0727 39.5959C59.1461 39.3723 59.2249 39.1488 59.3119 38.928C59.3119 38.8907 59.3391 38.8535 59.3554 38.8162C59.8655 37.5096 60.5325 36.2671 61.3423 35.1148C61.5027 34.8833 61.6712 34.6545 61.8452 34.4283C62.1958 33.9786 62.5736 33.5395 62.9732 33.1164L63.1798 32.9009L63.4135 32.6667L63.4597 32.6215C63.525 32.5576 63.5875 32.4964 63.6527 32.4379L63.8865 32.2197C64.1583 31.9802 64.4138 31.746 64.7019 31.5225C64.8922 31.3682 65.0852 31.2165 65.2809 31.0702L65.5255 30.8919C65.5506 30.8709 65.5769 30.8514 65.6043 30.8333C65.6804 30.7775 65.7593 30.7242 65.8381 30.671C68.6773 28.7064 72.0321 27.5794 75.5053 27.4235C78.9785 27.2676 82.4246 28.0893 85.4355 29.7913C88.4465 31.4933 90.8962 34.0043 92.4946 37.027C94.093 40.0497 94.7731 43.4576 94.4544 46.847L94.4571 46.839Z" fill="white"/>
<path d="M59.3123 64.7539C59.1791 64.9003 58.9617 65.1372 56.4257 63.628C56.8078 64.5815 57.0166 65.5931 57.0427 66.617C57.0427 66.766 57.0427 67.2212 56.6921 67.2984C56.5099 67.3383 56.0615 67.4394 54.61 64.6661C54.5325 65.1282 54.3984 65.5795 54.2104 66.0102C54.076 66.3143 53.9198 66.6087 53.7429 66.8911C53.6668 67.0162 53.4466 67.3649 53.1368 67.3649C53.0942 67.3641 53.0521 67.3569 53.0117 67.3436C52.6529 67.2345 52.4681 66.5212 52.4192 65.2143C52.3295 65.4113 52.2235 65.6189 52.1039 65.8345C52.0414 65.9463 51.8538 66.2843 51.5439 66.1911C51.3836 66.1432 51.0955 66.0581 51.1417 64.006C51.1417 63.7052 51.1607 63.3645 51.1852 62.976C51.1852 62.8908 51.1852 62.8003 51.1988 62.7098C51.2123 62.6193 51.1988 62.5368 51.2178 62.4436C51.2477 62.0151 51.2857 61.536 51.3347 61.0011L51.8783 61.049C51.8348 61.5068 51.7995 61.9858 51.7668 62.4516L51.7505 62.7178C51.7505 62.803 51.7505 62.8934 51.7505 62.9839C51.7233 63.479 51.707 63.9528 51.7043 64.36C51.693 64.7089 51.7021 65.0581 51.7315 65.406C51.8669 65.1462 51.9885 64.8797 52.0957 64.6075C52.2939 64.1353 52.4229 63.6379 52.479 63.1303V63.117L53.0226 63.1436C53.0234 63.1516 53.0234 63.1596 53.0226 63.1676C52.9845 63.841 52.9737 64.5623 52.99 65.1877C52.9766 65.719 53.0398 66.2494 53.1775 66.7634C53.2218 66.7116 53.2618 66.6564 53.2971 66.5984C53.4787 66.3101 53.635 66.0074 53.7647 65.6934C54.0523 65.0497 54.1782 64.3478 54.1316 63.6467L54.0419 63.0318L54.0038 62.7657L53.9631 62.4995L53.8842 61.9539L54.1561 62.5022L54.2865 62.7684L54.417 63.0345L54.6399 63.487C55.2759 64.7805 56.1049 66.2257 56.5099 66.6489V66.617C56.5099 64.887 55.6646 63.1915 55.6075 63.0824L55.4743 62.8163L55.3357 62.5501L55.1672 62.2281L55.7108 62.5581L55.9989 62.7364L56.1593 62.8349L56.6051 63.101C57.3335 63.5322 58.0729 63.9394 58.5512 64.1657C58.2794 63.833 57.9777 63.4763 57.6869 63.1303C57.6108 63.0425 57.532 62.952 57.4613 62.8642C57.3852 62.771 57.3064 62.6805 57.233 62.598C56.5779 61.8341 56.0479 61.2273 56.037 61.2166L55.7652 60.9052L56.1647 60.7881C56.3577 60.7322 56.5507 60.671 56.7355 60.6071C57.0373 60.5087 57.3254 60.4049 57.5863 60.3011C57.8473 60.1973 58.0892 60.0908 58.2849 59.9976C58.483 59.9134 58.6664 59.7994 58.8285 59.6596C58.6059 59.5663 58.3688 59.5105 58.1272 59.4946C57.9777 59.476 57.801 59.46 57.5836 59.4467L56.9095 59.4041C56.3333 59.3722 55.8793 59.3509 55.5206 59.3402C55.0805 59.3085 54.6383 59.3156 54.1996 59.3615C54.2329 59.3406 54.2607 59.3124 54.281 59.2792C54.3013 59.2459 54.3134 59.2085 54.3164 59.1699C54.3207 59.1246 54.3113 59.0791 54.2896 59.039C54.2679 58.9988 54.2347 58.9657 54.1941 58.9437L53.9468 59.4174C53.8832 59.3889 53.832 59.3394 53.8022 59.2776C53.7724 59.2157 53.7658 59.1455 53.7837 59.0794C53.8516 58.8345 53.8951 58.6722 57.6217 58.9144C57.8011 58.9144 57.9641 58.941 58.1136 58.957C58.3753 58.9807 58.6333 59.0334 58.8829 59.114C59.0258 59.153 59.1566 59.2261 59.2634 59.3269C59.3353 59.3988 59.3795 59.4928 59.3884 59.5931C59.3927 59.6589 59.3833 59.7249 59.3609 59.7871C59.3385 59.8493 59.3035 59.9064 59.258 59.9551C59.1681 60.0652 59.0607 60.1604 58.9399 60.2372C58.7808 60.3481 58.6126 60.446 58.4371 60.53C57.8825 60.791 57.3082 61.0099 56.7192 61.1847C56.9911 61.5014 57.4559 62.0364 57.9533 62.6193L58.1843 62.8855C58.255 62.9724 58.3284 63.0611 58.4045 63.1516C58.6763 63.463 58.9264 63.7744 59.1601 64.0592C59.2688 64.1923 59.5325 64.5143 59.3123 64.7539Z" fill="white"/>
<path d="M52.9426 23.9591L52.6708 24.0176L52.399 24.0788L51.2003 24.3449L44.4648 33.126L46.9383 35.2016L47.3569 35.5528L48.716 36.7024L51.1351 32.0324L51.5265 31.2767L51.8934 30.5689L52.0293 29.7865L52.062 29.5976L52.0919 29.4273L53.0514 23.9404L52.9426 23.9591ZM51.4477 29.9755L51.3797 30.3613L48.5284 35.8588L47.6151 35.0925L47.1965 34.7412L45.1797 33.0489L51.4912 24.7999L52.2876 24.6296L52.3718 24.611L51.7657 28.1128L51.7276 28.339L51.4477 29.9755Z" fill="white"/>
<path d="M67.0237 21.1599L59.4673 20.3614L59.1711 20.3295L58.7878 20.2896H58.709L59.1738 20.8645L60.2828 22.2405L60.6388 22.5945L61.9571 23.9093L62.2561 25.0804L62.4409 25.1017L62.7128 25.1363L63.5282 25.2348L63.9006 25.28L64.2594 25.3226L64.7214 24.6226L65.2053 23.8907L65.6973 23.1454L66.0588 23.2066L66.2218 23.2359L66.2545 23.0496L66.3143 22.7143L66.0153 22.6637L67.0237 21.1599ZM64.0039 24.753L62.6965 24.596L62.4518 23.6378L60.7014 21.8918L60.685 21.8732L59.731 20.923L59.9349 20.9443L66.0887 21.5964L65.4499 22.5625L65.1319 23.0443L64.0039 24.753Z" fill="white"/>
<path d="M93.585 51.4238L93.373 51.4637L93.0523 51.5222L88.8419 37.3899L87.9395 34.3564L88.2168 37.4192L89.9672 56.7909L89.4345 56.8814L84.2429 37.6028L82.7697 32.1319L83.3622 37.6427L85.6998 59.3587L85.167 59.4625L78.6137 37.8636L76.8061 31.903L77.7656 37.9035L81.6552 62.2219L81.1306 62.3523L72.3783 38.1536L70.2663 32.3128L71.3916 38.1988L76.0722 62.6982L75.5449 62.826L67.7249 38.3691L66.4392 34.3538L67.1921 38.3958L71.6634 62.4162L71.6906 62.5599L71.3971 62.629H71.3943L71.1633 62.6849L71.1225 62.5545L71.0247 62.2405L69.8097 58.3822L69.4672 57.2938L66.4474 47.7038L65.8766 45.889L65.2976 44.0449L65.2895 44.0237L64.7187 42.2089L64.0038 39.9338L63.9603 39.7954L63.5716 38.5634L63.2726 37.6108L63.414 38.5687L63.5906 39.7794L63.6287 40.0482L63.6369 40.0908L63.6749 40.3569L63.8733 41.7033L63.8978 41.8789L64.5202 46.1338L64.561 46.3972L64.5746 46.501L64.6127 46.7644L64.8682 48.51L64.9062 48.7575L64.9089 48.7788L64.947 49.0449L65.2732 51.2748L65.3139 51.5409L65.3248 51.6154L65.3629 51.8788L65.5504 53.1694L65.583 53.3902L65.5912 53.4328L65.6292 53.7015L66.0098 56.2933L66.0478 56.5594L66.0777 56.7563L66.0859 56.8228L66.1946 57.5519L66.2327 57.818L66.2598 58.0043L66.2979 58.2677L66.4909 59.5769L66.5289 59.843L66.567 60.1065L66.5887 60.2555L66.6268 60.5083L66.5262 60.5322H66.5235L66.1538 60.612L66.0967 60.6253L66.0777 60.5641L65.9554 60.1703L65.9445 60.1384L65.863 59.875L65.8249 59.7526L65.7814 59.6115L65.4009 58.4008L65.3221 58.1427L65.2106 57.7941L65.1291 57.5253L64.9252 56.8761L64.8437 56.6126L64.8247 56.5594L64.7594 56.3492L63.9304 53.6882L63.8462 53.4221L63.7809 53.2173L63.7619 53.1534L63.4167 52.0518L63.3351 51.791L63.2645 51.5648L63.1829 51.3014L62.4545 48.973L62.3702 48.7043V48.7016L62.286 48.4329L62.2805 48.4116V48.4089L61.8782 47.1263L61.7967 46.8709L61.6662 46.4531L61.5847 46.187L60.2691 41.9774L60.1821 41.7033L60.0979 41.4292L60.0489 41.2722L59.856 40.6549L59.7744 40.3941L59.6113 39.8779L59.5271 39.6065L59.3123 38.92L59.2852 38.8295L59.3558 38.8082L59.5434 38.7523L59.5515 38.7497H59.5651L59.8043 38.6725L59.8233 38.7364L60.1033 39.6304L60.1876 39.9018L60.3289 40.3489L60.4105 40.6123L60.6496 41.3813L60.6795 41.4718L60.7638 41.7459L60.8508 42.02L62.1501 46.1764L62.2316 46.4425L62.343 46.7964L62.4246 47.0545L62.8595 48.4515L62.8703 48.4887L62.9437 48.7202L63.028 48.989L63.7483 51.2934L63.8298 51.5595L63.8896 51.7404L63.9685 52.0012L64.33 53.1587L64.368 53.2731L64.4142 53.4248L64.4985 53.6936L65.3194 56.3252L65.4036 56.5887L65.4227 56.6525L65.4852 56.8494L65.5885 57.1821L65.5395 56.8468L65.5124 56.6685L65.5015 56.5834L65.4607 56.3173L65.0775 53.6962L65.0394 53.4301L65.0258 53.337L65.0013 53.164L64.8192 51.9267L64.7812 51.6633L64.7649 51.5488L64.7241 51.2827L64.3952 49.0289L64.3544 48.7628L64.3436 48.683L64.3164 48.4941L64.0745 46.8363L64.0364 46.5729L64.012 46.4079L63.9712 46.1418L63.3949 42.2036L63.3569 41.9322L63.346 41.8736L63.3161 41.6634L63.1313 40.3994L63.0932 40.1334L63.0769 40.0243L63.0361 39.7582L62.8676 38.5953L62.3349 34.9525L62.2533 34.4096L62.2425 34.3272L62.7725 34.2101L64.0908 38.4011L64.1343 38.5368L64.6643 40.2238L64.667 40.2345L65.2487 42.0812L65.8222 43.9039L70.3343 58.2438L66.6431 38.4197L65.2732 31.0622L65.2487 30.9291L65.2188 30.7695L65.1916 30.6311L65.1644 30.4768L65.1373 30.3331L65.1128 30.2L65.3819 30.1362L65.6401 30.0723L65.6564 30.1282L65.689 30.2293L65.7434 30.3969L65.7787 30.5034L65.8304 30.663L68.2848 38.3425L74.6941 58.3848L70.8426 38.2254L69.0894 29.0505L69.614 28.9148L72.9464 38.127L80.6658 59.4705L77.2193 37.9274L75.64 28.0526L76.1701 27.9355L79.1736 37.8369L84.849 56.5434L82.8186 37.6693L81.8564 28.7312L82.3891 28.6354L84.7974 37.5762L89.1436 53.7175L87.6731 37.4431L87.154 31.7008L87.6867 31.6023L89.4019 37.3633L92.7995 48.7681L91.7612 37.2648L92.0303 37.2409L92.3021 37.2169L93.5443 50.9847L93.585 51.4238Z" fill="white"/>
<path d="M51.7287 28.3502L51.6934 28.4061L51.7422 28.1079L51.7667 28.1239L51.84 28.1665L51.7287 28.3502Z" fill="white"/>
<path d="M52.8868 59.5079L52.5008 59.8857L52.3975 59.7846L50.2692 57.7011L49.5979 57.0438L48.2198 55.6947L47.9833 55.4632L47.842 55.3249L47.5076 54.9976L47.4995 54.9896L42.6531 50.2451L41.8349 49.4468L41.8295 49.4389L39.5762 47.2329L42.0986 43.0978L42.509 42.4272L42.9195 41.754L46.9151 35.2028L47.0564 34.9712L47.1978 34.7397L47.6164 35.091L47.475 35.3225L47.3337 35.554L44.1562 40.7615L43.7458 41.4347L43.3353 42.1079L40.2611 47.1478L42.4682 49.3085L47.2385 53.9784L47.6109 54.343L47.8474 54.5745L48.0866 54.8086L48.3231 55.0401L50.783 57.4483L51.0602 57.7197L52.8868 59.5079Z" fill="white"/>
<path d="M95.6992 12.1731L95.5063 12.4685C93.3644 15.7521 91.0023 17.5668 88.4854 17.8595C85.4221 18.2135 83.1687 16.1273 83.147 16.106L82.973 15.941L65.3814 30.1345L65.1368 30.3314L63.5222 31.6326L63.2803 31.8295L63.0384 32.0238L62.4622 32.4868L61.3749 33.3676L60.0675 34.416L58.6948 35.523L53.9354 39.3654L53.6229 39.6182L53.3103 39.8709L53.1363 40.012L52.2692 40.7118L51.905 41.0045L51.7963 41.0923L51.4918 41.3398L50.0186 42.5266L49.7033 42.7794L49.3907 43.0455L42.0926 48.9288L41.7012 49.2455L41.8398 49.4371C43.0548 51.1374 43.4354 52.8138 42.9706 54.421C41.9159 58.0586 36.8657 60.2272 36.8168 60.2485L36.4824 60.3895L41.3261 66.092L50.1763 76.5096L50.6737 77.0923L56.08 83.4573L56.0583 82.6857C56.0148 81.2701 56.4687 80.1711 57.4173 79.4207C60.1898 77.2014 66.3029 78.5612 66.3627 78.5745L66.4986 78.6064L67.4118 77.8241L108.455 42.6037L108.613 42.468L108.518 42.2844C105.365 36.1217 112.867 31.9067 113.179 31.7284L113.473 31.5661L95.6992 12.1731ZM107.931 42.3456L90.1244 57.6222L87.1019 60.2272L67.4934 77.0498L66.3327 78.045C65.3651 77.8427 59.8283 76.8076 57.0585 79.0269C56.6068 79.3913 56.2374 79.8437 55.974 80.3554C55.7105 80.8671 55.5587 81.4269 55.5282 81.9991L50.5432 76.1451L50.4698 76.0572L41.5272 65.5332L37.3522 60.6211C38.5373 60.0623 42.5166 57.9601 43.487 54.5993C43.8429 53.3476 43.7469 52.014 43.2152 50.8234C42.9996 50.3131 42.7319 49.8255 42.4161 49.3679L42.4623 49.3306L49.2576 43.8464L49.5701 43.5963L49.8827 43.3302L50.1953 43.0801L52.2638 41.4116L52.5682 41.1668L52.84 40.9486L53.2043 40.6533L53.824 40.153L54.1121 39.9215L54.4247 39.6687L54.7373 39.4159L59.7604 35.358L60.921 34.4213L61.5896 33.8891L62.4404 33.2026L62.7965 32.9152L63.1308 32.6491L63.2586 32.5453L63.37 32.4575L63.6119 32.2606L63.8511 32.0664L65.2373 30.9488L65.4793 30.7545L65.5418 30.704L65.7674 30.523L66.5828 29.8684L67.8005 28.8865L82.9431 16.6701C83.5656 17.1863 85.6939 18.7377 88.5343 18.4104C91.1464 18.1123 93.5764 16.3162 95.7618 13.0725L112.614 31.4677C111.195 32.3272 105.131 36.5448 107.931 42.3456Z" fill="white"/>
</svg>
