<svg width="24" height="25" viewBox="0 0 24 25" fill="none" xmlns="http://www.w3.org/2000/svg">
<g id="Frame">
<path id="Vector" d="M12 0.371094H0V24.3711H24V0.371094H12ZM7.41818 10.8438L6.10909 8.44382C5.78182 8.00746 6.21818 7.57109 6.54545 7.57109H8.61818C8.83636 7.57109 8.94545 7.68019 9.05455 7.78928L10.6909 10.8438C10.8 11.062 10.8 11.2802 10.6909 11.3893L8.50909 15.0984C8.29091 15.2075 8.18182 15.3165 7.96364 15.3165H6C5.56364 15.3165 5.23636 14.7711 5.45455 14.3347L7.41818 11.2802V10.8438ZM10.5818 14.4438C10.4727 14.2256 10.4727 14.0075 10.5818 13.8984L15.4909 5.28018C15.6 5.062 15.8182 4.95291 16.0364 4.95291H18.2182C18.5455 4.95291 18.8727 5.38928 18.5455 5.82564L13.9636 13.8984C13.8545 14.1165 13.8545 14.2256 13.9636 14.3347L16.6909 19.0256C16.9091 19.462 16.5818 20.0075 16.1455 20.0075H13.9636C13.7455 20.0075 13.5273 19.8984 13.4182 19.7893L10.5818 14.4438Z" fill="#ABABAB"/>
</g>
</svg>
