<svg width="24" height="25" viewBox="0 0 24 25" fill="none" xmlns="http://www.w3.org/2000/svg">
<g id="Frame">
<path id="Vector" fill-rule="evenodd" clip-rule="evenodd" d="M24 0.371094H0V24.3711H24V0.371094ZM16.344 10.4661C16.344 13.3781 14.094 16.7351 9.976 16.7351C8.76198 16.7366 7.57249 16.3933 6.546 15.7451C6.723 15.7651 6.901 15.7751 7.079 15.7751C8.08458 15.7776 9.06248 15.4459 9.859 14.8321C9.39493 14.8255 8.9444 14.6747 8.5699 14.4005C8.1954 14.1264 7.9155 13.7425 7.769 13.3021C8.10424 13.3656 8.44948 13.3526 8.779 13.2641C7.755 13.0631 6.984 12.1721 6.984 11.1041V11.0771C7.294 11.2471 7.642 11.3411 7.998 11.3521C7.69269 11.1532 7.44174 10.8814 7.26785 10.5612C7.09395 10.241 7.00258 9.88247 7.002 9.51809C7.002 9.12909 7.106 8.74809 7.305 8.41109C7.87186 9.09415 8.57481 9.65162 9.36904 10.048C10.1633 10.4443 11.0314 10.6708 11.918 10.7131C11.8791 10.5483 11.8596 10.3795 11.86 10.2101C11.86 8.99409 12.863 8.00809 14.099 8.00809C14.742 8.00809 15.324 8.27509 15.732 8.70409C16.2327 8.60703 16.7135 8.42616 17.154 8.16909C16.9847 8.68138 16.6345 9.11441 16.169 9.38709C16.6121 9.33585 17.0451 9.21925 17.454 9.04109C17.1527 9.48439 16.7748 9.87043 16.338 10.1811C16.343 10.2761 16.344 10.3711 16.344 10.4661Z" fill="#ABABAB"/>
</g>
</svg>
