<svg width="24" height="25" viewBox="0 0 24 25" fill="none" xmlns="http://www.w3.org/2000/svg">
<g id="Frame">
<path id="Vector" fill-rule="evenodd" clip-rule="evenodd" d="M24 0.371094H0V24.3711H24V0.371094ZM11.083 8.10409C10.7593 8.03736 10.4295 8.00518 10.099 8.00809H6.545V15.6441H10.205C10.539 15.6441 10.872 15.6011 11.195 15.5161C11.515 15.4301 11.8 15.2991 12.051 15.1201C12.301 14.9421 12.501 14.7121 12.649 14.4301C12.797 14.1491 12.871 13.8151 12.871 13.4301C12.871 12.9521 12.757 12.5441 12.527 12.2061C12.297 11.8671 11.951 11.6301 11.485 11.4941C11.823 11.3311 12.079 11.1201 12.252 10.8641C12.424 10.6071 12.512 10.2861 12.512 9.90109C12.512 9.54409 12.453 9.24509 12.336 9.00209C12.2262 8.7678 12.0565 8.56668 11.844 8.41909C11.6139 8.26501 11.3546 8.15796 11.083 8.10409ZM10.618 10.8841C10.428 11.0271 10.184 11.0981 9.888 11.0981L8.207 11.0991V9.31309H9.76C9.904 9.31309 10.047 9.32509 10.188 9.35009C10.326 9.37509 10.447 9.42009 10.553 9.48409C10.659 9.54809 10.743 9.63709 10.807 9.75109C10.87 9.86509 10.902 10.0111 10.902 10.1891C10.902 10.5101 10.808 10.7421 10.617 10.8841H10.618ZM10.448 14.2901C10.2951 14.3226 10.1393 14.3386 9.983 14.3381H8.207V12.2431H10.015C10.375 12.2431 10.664 12.3261 10.883 12.4941C11.101 12.6611 11.211 12.9421 11.211 13.3341C11.211 13.5331 11.177 13.6971 11.11 13.8251C11.0475 13.9481 10.9545 14.0531 10.84 14.1301C10.7208 14.2073 10.5882 14.2615 10.449 14.2901H10.448ZM15.934 14.5101C15.51 14.5101 15.186 14.3991 14.96 14.1781C14.735 13.9581 14.612 13.6011 14.591 13.1111H18.536C18.5653 12.6981 18.5295 12.283 18.43 11.8811C18.3384 11.5038 18.1751 11.1477 17.949 10.8321C17.7262 10.5252 17.4348 10.2745 17.098 10.1001C16.752 9.91809 16.346 9.82709 15.881 9.82709C15.465 9.82709 15.086 9.90209 14.744 10.0511C14.402 10.2011 14.107 10.4061 13.86 10.6661C13.614 10.9261 13.423 11.2341 13.29 11.5911C13.155 11.9471 13.088 12.3321 13.088 12.7451C13.088 13.1731 13.154 13.5651 13.284 13.9221C13.414 14.2781 13.599 14.5841 13.839 14.8421C14.079 15.0981 14.372 15.2961 14.717 15.4351C15.062 15.5741 15.45 15.6431 15.88 15.6431C16.5 15.6431 17.03 15.5001 17.467 15.2151C17.904 14.9301 18.229 14.4561 18.44 13.7931H17.118C17.068 13.9641 16.935 14.1271 16.716 14.2801C16.4858 14.4367 16.2123 14.5172 15.934 14.5101ZM15.838 10.9701C16.205 10.9701 16.478 11.0701 16.658 11.2701C16.838 11.4691 16.963 11.7611 17.034 12.1461H14.591C14.598 12.0391 14.621 11.9181 14.66 11.7821C14.7035 11.633 14.7776 11.4946 14.8777 11.3758C14.9777 11.257 15.1015 11.1603 15.241 11.0921C15.399 11.0121 15.598 10.9701 15.838 10.9701ZM17.386 8.39509H14.334V9.25109H17.386V8.39509Z" fill="#ABABAB"/>
</g>
</svg>
