<svg width="95" height="25" viewBox="0 0 95 25" fill="none" xmlns="http://www.w3.org/2000/svg">
<g id="Frame">
<g id="Clip path group">
<mask id="mask0_12_235" style="mask-type:luminance" maskUnits="userSpaceOnUse" x="0" y="0" width="95" height="25">
<g id="a">
<path id="Vector" d="M0 0.371094H95V24.3711H0V0.371094Z" fill="white"/>
</g>
</mask>
<g mask="url(#mask0_12_235)">
<g id="Group">
<g id="Group_2">
<path id="Vector_2" d="M17.174 17.3803C15.8537 18.4992 14.1725 19.1014 12.442 19.0753C8.43 19.0753 5.484 16.2303 5.484 12.3273C5.484 8.42325 8.336 5.69925 12.442 5.69925C14.1766 5.67328 15.8643 6.26324 17.205 7.36425L18.083 8.09025L21.969 4.33825L20.997 3.46025C18.647 1.43225 15.593 0.330252 12.442 0.372252C5.234 0.373252 0 5.39725 0 12.2963C0 19.1963 5.359 24.3723 12.442 24.3723C15.623 24.4133 18.702 23.2893 21.06 21.2253L22 20.3773L18.051 16.6253L17.174 17.3813V17.3803Z" fill="#ABABAB"/>
<path id="Vector_3" d="M12 16.3711C13.0609 16.3711 14.0783 15.9497 14.8284 15.1995C15.5786 14.4494 16 13.432 16 12.3711C16 11.3102 15.5786 10.2928 14.8284 9.54267C14.0783 8.79252 13.0609 8.37109 12 8.37109C10.9391 8.37109 9.92172 8.79252 9.17157 9.54267C8.42143 10.2928 8 11.3102 8 12.3711C8 13.432 8.42143 14.4494 9.17157 15.1995C9.92172 15.9497 10.9391 16.3711 12 16.3711Z" fill="#ABABAB"/>
</g>
<path id="Vector_4" d="M33.0009 0.371094L34.3479 4.51709H38.7079L35.1809 7.07909L36.5279 11.2251L33.0009 8.66309L29.4739 11.2251L30.8209 7.07909L27.2949 4.51709H31.6539L33.0009 0.371094ZM47.0009 0.371094L48.3479 4.51709H52.7079L49.1809 7.07909L50.5279 11.2251L47.0009 8.66309L43.4739 11.2251L44.8209 7.07909L41.2949 4.51709H45.6539L47.0009 0.371094ZM61.0009 0.371094L62.3479 4.51709H66.7079L63.1809 7.07909L64.5279 11.2251L61.0009 8.66309L57.4739 11.2251L58.8209 7.07909L55.2949 4.51709H59.6539L61.0009 0.371094ZM75.0009 0.371094L76.3479 4.51709H80.7079L77.1809 7.07909L78.5279 11.2251L75.0009 8.66309L71.4739 11.2251L72.8209 7.07909L69.2949 4.51709H73.6539L75.0009 0.371094ZM89.0009 0.371094L90.3479 4.51709H94.7079L91.1809 7.07909L92.5279 11.2251L89.0009 8.66309L85.4739 11.2251L86.8209 7.07909L83.2949 4.51709H87.6539L89.0009 0.371094ZM30.4989 16.5601V22.9931H29.6859V17.5751L28.0459 18.1721V17.4391L30.3709 16.5591L30.4989 16.5601ZM37.5359 19.2841V20.2601C37.5359 20.7841 37.4889 21.2271 37.3959 21.5871C37.3009 21.9471 37.1659 22.2371 36.9909 22.4571C36.8149 22.6771 36.6029 22.8371 36.3539 22.9361C36.0872 23.0364 35.8039 23.0856 35.5189 23.0811C35.2729 23.0811 35.0459 23.0511 34.8379 22.9891C34.6326 22.929 34.4412 22.8287 34.2749 22.6941C34.1011 22.5442 33.9578 22.3622 33.8529 22.1581C33.7247 21.9061 33.6344 21.6365 33.5849 21.3581C33.5193 20.9959 33.4885 20.6282 33.4929 20.2601V19.2841C33.4929 18.7601 33.5399 18.3201 33.6329 17.9661C33.7299 17.6111 33.8659 17.3271 34.0429 17.1131C34.2179 16.8971 34.4289 16.7411 34.6749 16.6471C34.9239 16.5541 35.2019 16.5071 35.5099 16.5071C35.7589 16.5071 35.9869 16.5371 36.1949 16.5991C36.4059 16.6581 36.5939 16.7531 36.7579 16.8851C36.9219 17.0141 37.0609 17.1871 37.1749 17.4031C37.2929 17.6171 37.3819 17.8791 37.4439 18.1901C37.5049 18.5001 37.5359 18.8651 37.5359 19.2841ZM36.7179 20.3921V19.1481C36.7179 18.8611 36.7009 18.6081 36.6659 18.3921C36.6407 18.1995 36.592 18.0108 36.5209 17.8301C36.4656 17.6886 36.3819 17.5599 36.2749 17.4521C36.1798 17.3564 36.0638 17.2842 35.9359 17.2411C35.7992 17.1926 35.655 17.1689 35.5099 17.1711C35.3159 17.1711 35.1449 17.2071 34.9959 17.2811C34.8409 17.3563 34.7099 17.4734 34.6179 17.6191C34.5179 17.7741 34.4419 17.9781 34.3889 18.2291C34.3369 18.4811 34.3099 18.7881 34.3099 19.1481V20.3921C34.3099 20.6791 34.3259 20.9321 34.3589 21.1521C34.3939 21.3721 34.4449 21.5621 34.5119 21.7231C34.5799 21.8811 34.6619 22.0121 34.7579 22.1141C34.8509 22.2143 34.965 22.2925 35.0919 22.3431C35.2219 22.3901 35.3629 22.4131 35.5189 22.4131C35.7179 22.4131 35.8919 22.3751 36.0419 22.2991C36.1969 22.2174 36.3261 22.0941 36.4149 21.9431C36.5179 21.7791 36.5939 21.5691 36.6439 21.3151C36.6939 21.0571 36.7179 20.7491 36.7179 20.3921ZM43.2279 19.2841V20.2601C43.2279 20.7841 43.1809 21.2271 43.0879 21.5871C42.9939 21.9471 42.8589 22.2371 42.6829 22.4571C42.5079 22.6771 42.2949 22.8371 42.0459 22.9361C41.7792 23.0364 41.4959 23.0856 41.2109 23.0811C40.9649 23.0811 40.7379 23.0511 40.5299 22.9891C40.3246 22.929 40.1332 22.8287 39.9669 22.6941C39.7935 22.5441 39.6505 22.3621 39.5459 22.1581C39.4177 21.9061 39.3274 21.6365 39.2779 21.3581C39.2119 20.9959 39.1808 20.6282 39.1849 20.2601V19.2841C39.1849 18.7601 39.2319 18.3201 39.3249 17.9661C39.4229 17.6111 39.5589 17.3271 39.7349 17.1131C39.9099 16.8971 40.1209 16.7411 40.3669 16.6471C40.6169 16.5541 40.8949 16.5071 41.2019 16.5071C41.4519 16.5071 41.6799 16.5371 41.8879 16.5991C42.0979 16.6581 42.2859 16.7531 42.4509 16.8851C42.6139 17.0141 42.7539 17.1871 42.8679 17.4031C42.9849 17.6171 43.0749 17.8791 43.1359 18.1901C43.1979 18.5001 43.2279 18.8651 43.2279 19.2841ZM42.4109 20.3921V19.1481C42.4109 18.8611 42.3929 18.6081 42.3579 18.3921C42.3327 18.1995 42.284 18.0108 42.2129 17.8301C42.1576 17.6886 42.0739 17.5599 41.9669 17.4521C41.8721 17.3566 41.7564 17.2843 41.6289 17.2411C41.4919 17.1925 41.3473 17.1688 41.2019 17.1711C41.0089 17.1711 40.8379 17.2071 40.6879 17.2811C40.5329 17.3563 40.4019 17.4734 40.3099 17.6191C40.2099 17.7741 40.1349 17.9781 40.0819 18.2291C40.0289 18.4811 40.0019 18.7881 40.0019 19.1481V20.3921C40.0019 20.6791 40.0189 20.9321 40.0509 21.1521C40.0859 21.3721 40.1379 21.5621 40.2049 21.7231C40.2719 21.8811 40.3549 22.0121 40.4509 22.1141C40.5439 22.2143 40.658 22.2925 40.7849 22.3431C40.9139 22.3901 41.0549 22.4131 41.2109 22.4131C41.4109 22.4131 41.5849 22.3751 41.7339 22.2991C41.8893 22.2176 42.0188 22.0943 42.1079 21.9431C42.2099 21.7791 42.2859 21.5691 42.3359 21.3151C42.3859 21.0571 42.4109 20.7491 42.4109 20.3921ZM49.1009 19.5611V20.3261H44.7149V19.5611H49.1009ZM47.3169 17.6931V22.3521H46.5039V17.6931H47.3169ZM53.7139 16.5951H55.8319C56.3119 16.5951 56.7179 16.6681 57.0489 16.8151C57.3829 16.9611 57.6369 17.1781 57.8089 17.4651C57.9849 17.7491 58.0729 18.0991 58.0729 18.5151C58.0729 18.8081 58.0129 19.0761 57.8929 19.3191C57.774 19.5619 57.5992 19.773 57.3829 19.9351C57.1629 20.1021 56.8999 20.2261 56.5929 20.3081L56.3549 20.4001H54.3649L54.3549 19.7101H55.8589C56.1629 19.7101 56.4169 19.6581 56.6189 19.5521C56.8209 19.4441 56.9729 19.2991 57.0759 19.1171C57.1779 18.9361 57.2299 18.7351 57.2299 18.5151C57.2299 18.2691 57.1809 18.0541 57.0849 17.8691C56.9839 17.6805 56.8232 17.5307 56.6279 17.4431C56.4219 17.3401 56.1579 17.2891 55.8319 17.2891H54.5619V22.9931H53.7139V16.5951ZM57.4539 22.9931L55.8979 20.0931L56.7809 20.0881L58.3589 22.9401V22.9931H57.4539ZM63.9549 22.3031V22.9931H60.5669V22.3031H63.9549ZM60.7379 16.5951V22.9931H59.8899V16.5951H60.7379ZM63.5069 19.3451V20.0351H60.5669V19.3451H63.5069ZM63.9109 16.5951V17.2891H60.5669V16.5951H63.9109ZM67.7009 22.0221L69.5859 16.5951H70.5039L68.1359 22.9931H67.4809L67.7009 22.0221ZM65.9379 16.5951L67.8059 22.0221L68.0389 22.9931H67.3839L65.0199 16.5951H65.9379ZM72.9049 16.5951V22.9931H72.0569V16.5951H72.9049ZM79.1429 22.3031V22.9931H75.7549V22.3031H79.1429ZM75.9259 16.5951V22.9931H75.0779V16.5951H75.9259ZM78.6939 19.3451V20.0351H75.7539V19.3451H78.6939ZM79.0989 16.5951V17.2891H75.7549V16.5951H79.0989ZM82.5059 21.0601L83.7759 16.5951H84.3909L84.0349 18.3311L82.6689 22.9931H82.0579L82.5059 21.0601ZM81.1919 16.5951L82.2019 20.9721L82.5059 22.9931H81.9009L80.3489 16.5951H81.1919ZM86.0349 20.9671L87.0239 16.5951H87.8719L86.3249 22.9931H85.7189L86.0349 20.9671ZM84.4839 16.5951L85.7179 21.0601L86.1669 22.9931H85.5559L84.2369 18.3311L83.8769 16.5951H84.4839ZM92.8519 21.3761C92.8519 21.2261 92.8289 21.0951 92.7819 20.9811C92.7326 20.8562 92.6507 20.7468 92.5449 20.6641C92.4034 20.5527 92.2464 20.4624 92.0789 20.3961C91.8354 20.2943 91.586 20.2075 91.3319 20.1361C91.0397 20.0515 90.7534 19.9476 90.4749 19.8251C90.2403 19.7204 90.0202 19.586 89.8199 19.4251C89.6389 19.2751 89.4999 19.1041 89.4029 18.9111C89.3032 18.7042 89.2535 18.4767 89.2579 18.2471C89.2553 18.0088 89.3074 17.7731 89.4102 17.5581C89.513 17.3431 89.6638 17.1546 89.8509 17.0071C90.0439 16.8501 90.2739 16.7271 90.5409 16.6391C90.8069 16.5511 91.1049 16.5071 91.4329 16.5071C91.9129 16.5071 92.3209 16.5991 92.6549 16.7841C92.9919 16.9651 93.2479 17.2041 93.4239 17.5001C93.5989 17.7931 93.6869 18.1061 93.6869 18.4401H92.8439C92.8439 18.2001 92.7919 17.9881 92.6899 17.8031C92.5837 17.6119 92.4209 17.4582 92.2239 17.3631C92.0159 17.2551 91.7519 17.2011 91.4329 17.2011C91.1309 17.2011 90.8829 17.2471 90.6859 17.3371C90.5058 17.414 90.3526 17.5428 90.2459 17.7071C90.1529 17.8621 90.1059 18.0391 90.1059 18.2381C90.1059 18.3731 90.1339 18.4961 90.1889 18.6081C90.2479 18.7161 90.3369 18.8171 90.4569 18.9111C90.5799 19.0041 90.7359 19.0911 90.9229 19.1701C91.1129 19.2491 91.3409 19.3251 91.6039 19.3991C91.9679 19.5011 92.2809 19.6151 92.5439 19.7411C92.8079 19.8671 93.0249 20.0091 93.1949 20.1681C93.3679 20.3231 93.4949 20.5001 93.5769 20.6991C93.6619 20.8961 93.7049 21.1191 93.7049 21.3671C93.7049 21.6271 93.6519 21.8641 93.5469 22.0751C93.4398 22.2878 93.2847 22.4726 93.0939 22.6151C92.8979 22.7651 92.6619 22.8801 92.3869 22.9621C92.1139 23.0421 91.8089 23.0821 91.4729 23.0821C91.1769 23.0821 90.8849 23.0401 90.5979 22.9581C90.3199 22.8788 90.0569 22.7537 89.8199 22.5881C89.5925 22.4285 89.4022 22.2218 89.2619 21.9821C89.1207 21.7239 89.0497 21.4333 89.0559 21.1391H89.8989C89.8989 21.3591 89.9419 21.5471 90.0269 21.7061C90.1119 21.8611 90.2269 21.9901 90.3739 22.0921C90.5239 22.1951 90.6919 22.2711 90.8789 22.3211C91.0689 22.3681 91.2669 22.3911 91.4729 22.3911C91.7679 22.3911 92.0189 22.3511 92.2239 22.2681C92.4289 22.1861 92.5839 22.0681 92.6899 21.9171C92.8001 21.7586 92.8568 21.5691 92.8519 21.3761Z" fill="#ABABAB"/>
</g>
</g>
</g>
</g>
</svg>
