<svg width="16" height="17" viewBox="0 0 16 17" fill="none" xmlns="http://www.w3.org/2000/svg">
<g clip-path="url(#clip0_12_167)">
<path d="M7.39077 5.48137C7.53947 5.61026 7.73106 5.67876 7.92777 5.67337C8.12051 5.68027 8.30827 5.61134 8.45077 5.48137C8.52177 5.41704 8.57815 5.33822 8.61611 5.25024C8.65406 5.16226 8.6727 5.06717 8.67077 4.97137C8.67329 4.87768 8.65485 4.78462 8.61678 4.69898C8.57872 4.61333 8.522 4.53728 8.45077 4.47637C8.38229 4.40806 8.30058 4.35447 8.21064 4.31887C8.12071 4.28328 8.02445 4.26643 7.92777 4.26937C7.72848 4.26487 7.53548 4.33927 7.39077 4.47637C7.3231 4.5394 7.2697 4.61619 7.23417 4.70157C7.19864 4.78695 7.1818 4.87894 7.18477 4.97137C7.18477 5.17337 7.25377 5.34337 7.39077 5.48137Z" fill="#ABABAB"/>
<path d="M7.55577 11.5394H6.50977V12.2694H9.53977V11.5394H8.56177V6.85938H6.52377V7.58938H7.55577V11.5394Z" fill="#ABABAB"/>
<path fill-rule="evenodd" clip-rule="evenodd" d="M16.0098 8.76953C16.0098 10.8913 15.1669 12.9261 13.6666 14.4264C12.1663 15.9267 10.1315 16.7695 8.00977 16.7695C5.88803 16.7695 3.8532 15.9267 2.35291 14.4264C0.85262 12.9261 0.00976563 10.8913 0.00976562 8.76953C0.00976563 6.6478 0.85262 4.61297 2.35291 3.11268C3.8532 1.61239 5.88803 0.769531 8.00977 0.769531C10.1315 0.769531 12.1663 1.61239 13.6666 3.11268C15.1669 4.61297 16.0098 6.6478 16.0098 8.76953ZM15.3138 8.76953C15.3138 10.7067 14.5442 12.5645 13.1745 13.9342C11.8047 15.304 9.94691 16.0735 8.00977 16.0735C6.07262 16.0735 4.21482 15.304 2.84506 13.9342C1.47529 12.5645 0.705766 10.7067 0.705766 8.76953C0.705766 6.83239 1.47529 4.97459 2.84506 3.60482C4.21482 2.23506 6.07262 1.46553 8.00977 1.46553C9.94691 1.46553 11.8047 2.23506 13.1745 3.60482C14.5442 4.97459 15.3138 6.83239 15.3138 8.76953Z" fill="#ABABAB"/>
</g>
<defs>
<clipPath id="clip0_12_167">
<rect width="16" height="15.6671" fill="white" transform="translate(0.00976562 0.769531)"/>
</clipPath>
</defs>
</svg>
