<svg width="24" height="25" viewBox="0 0 24 25" fill="none" xmlns="http://www.w3.org/2000/svg">
<g id="Frame">
<path id="Vector" fill-rule="evenodd" clip-rule="evenodd" d="M0 0.371094H24V24.3711H0V0.371094ZM6.15055 10.3464V18.3711H8.7V10.3464H6.15055ZM6 7.79582C6 8.62055 6.6 9.22164 7.42473 9.22164C8.24946 9.22164 8.85055 8.62164 8.85055 7.79582C8.85055 6.97109 8.25055 6.37109 7.42473 6.37109C6.67527 6.37109 6 6.97109 6 7.79582ZM15.4495 18.3711H17.8495V13.4216C17.8495 10.9453 16.3505 10.1216 14.9258 10.1216C13.6495 10.1216 12.7495 10.9464 12.5258 11.4711V10.3464H10.1258V18.3711H12.6753V14.0958C12.6753 12.9711 13.4247 12.3711 14.1753 12.3711C14.9247 12.3711 15.4495 12.7464 15.4495 14.0205V18.3711Z" fill="#ABABAB"/>
</g>
</svg>
