<svg width="24" height="25" viewBox="0 0 24 25" fill="none" xmlns="http://www.w3.org/2000/svg">
<g id="Frame">
<g id="Group">
<path id="Vector" d="M12.0004 14.4695C11.7245 14.47 11.4512 14.4159 11.1962 14.3106C10.9413 14.2052 10.7096 14.0505 10.5145 13.8554C10.3194 13.6603 10.1648 13.4287 10.0594 13.1737C9.95399 12.9187 9.89996 12.6454 9.90039 12.3695C9.90039 11.2448 10.8004 10.2695 12.0004 10.2695C13.1251 10.2695 14.1004 11.1695 14.1004 12.3695C14.1004 13.4943 13.1251 14.4695 12.0004 14.4695Z" fill="#ABABAB"/>
<path id="Vector_2" fill-rule="evenodd" clip-rule="evenodd" d="M14.5509 7.26953H9.45094C8.85094 7.3448 8.55094 7.42008 8.32512 7.49426C8.02512 7.56953 7.80039 7.72008 7.57566 7.9448C7.39785 8.12262 7.31385 8.30044 7.2113 8.51535C7.18512 8.57208 7.15675 8.63208 7.12512 8.69426C7.11421 8.72917 7.10003 8.76626 7.08585 8.80553C7.0073 9.01935 6.90039 9.3128 6.90039 9.82008V14.9201C6.97566 15.5201 7.05094 15.8201 7.12512 16.0437C7.20039 16.3448 7.35094 16.5695 7.57566 16.7943C7.75348 16.9732 7.9313 17.0561 8.14621 17.1586C8.20294 17.1848 8.26294 17.2132 8.32512 17.2448C8.36003 17.2557 8.39712 17.2699 8.43639 17.2841C8.65021 17.3626 8.94366 17.4695 9.45094 17.4695H14.5509C15.1509 17.3943 15.4509 17.319 15.6746 17.2448C15.9757 17.1695 16.2004 17.019 16.4251 16.7943C16.604 16.6164 16.6869 16.4386 16.7895 16.2237C16.8157 16.167 16.844 16.107 16.8757 16.0448C16.8866 16.0099 16.9008 15.9728 16.9149 15.9335C16.9935 15.7197 17.1004 15.4263 17.1004 14.919V9.82008C17.0251 9.22008 16.9498 8.92008 16.8757 8.69644C16.8004 8.39535 16.6498 8.17062 16.4251 7.9459C16.2473 7.76808 16.0695 7.68408 15.8546 7.58153C15.7946 7.5535 15.735 7.52477 15.6757 7.49535C15.6408 7.48444 15.6037 7.47026 15.5644 7.45608C15.3506 7.37753 15.0571 7.27062 14.5498 7.27062L14.5509 7.26953ZM12.0004 9.1448C11.576 9.14161 11.1553 9.22284 10.7626 9.38377C10.3699 9.54469 10.0131 9.7821 9.71304 10.0822C9.41296 10.3823 9.17555 10.739 9.01463 11.1317C8.8537 11.5244 8.77247 11.9452 8.77566 12.3695C8.77247 12.7939 8.8537 13.2147 9.01463 13.6074C9.17555 14 9.41296 14.3568 9.71304 14.6569C10.0131 14.957 10.3699 15.1944 10.7626 15.3553C11.1553 15.5162 11.576 15.5975 12.0004 15.5943C12.4248 15.5975 12.8455 15.5162 13.2382 15.3553C13.6309 15.1944 13.9877 14.957 14.2877 14.6569C14.5878 14.3568 14.8252 14 14.9862 13.6074C15.1471 13.2147 15.2283 12.7939 15.2251 12.3695C15.2283 11.9452 15.1471 11.5244 14.9862 11.1317C14.8252 10.739 14.5878 10.3823 14.2877 10.0822C13.9877 9.7821 13.6309 9.54469 13.2382 9.38377C12.8455 9.22284 12.4248 9.14161 12.0004 9.1448ZM16.0509 9.06953C16.0509 9.26859 15.9719 9.45949 15.8311 9.60025C15.6904 9.741 15.4994 9.82008 15.3004 9.82008C15.1013 9.82008 14.9104 9.741 14.7697 9.60025C14.6289 9.45949 14.5498 9.26859 14.5498 9.06953C14.5498 8.87047 14.6289 8.67957 14.7697 8.53882C14.9104 8.39806 15.1013 8.31899 15.3004 8.31899C15.4994 8.31899 15.6904 8.39806 15.8311 8.53882C15.9719 8.67957 16.0509 8.87047 16.0509 9.06953Z" fill="#ABABAB"/>
<path id="Vector_3" fill-rule="evenodd" clip-rule="evenodd" d="M0 0.371094H24V24.3711H0V0.371094ZM9.44945 6.14637H14.5495C15.2258 6.22164 15.6753 6.29582 16.0505 6.44637C16.5 6.67109 16.8 6.82055 17.1742 7.19582C17.5495 7.57109 17.7742 7.94637 17.9247 8.32055C18.0753 8.69582 18.2247 9.14637 18.2247 9.82055V14.9205C18.1495 15.5969 18.0753 16.0464 17.9247 16.4216C17.7 16.8711 17.5495 17.1711 17.1753 17.5453C16.8 17.9205 16.4247 18.1453 16.0505 18.2958C15.5764 18.4974 15.0658 18.5996 14.5505 18.5958H9.45055C8.77418 18.5205 8.32473 18.4464 7.94945 18.2958C7.5 18.0711 7.2 17.9205 6.82582 17.5464C6.50012 17.2278 6.24449 16.8447 6.07527 16.4216C5.87364 15.9474 5.77154 15.4369 5.77527 14.9216V9.82164C5.85055 9.14528 5.92473 8.69582 6.07527 8.32055C6.3 7.87109 6.44945 7.57109 6.82473 7.19691C7.2 6.82055 7.57527 6.59691 7.94945 6.44637C8.42365 6.24474 8.93419 6.14263 9.44945 6.14637Z" fill="#ABABAB"/>
</g>
</g>
</svg>
