<svg width="24" height="25" viewBox="0 0 24 25" fill="none" xmlns="http://www.w3.org/2000/svg">
<g id="Frame">
<g id="Mask group">
<mask id="mask0_12_228" style="mask-type:alpha" maskUnits="userSpaceOnUse" x="0" y="0" width="24" height="25">
<g id="Group">
<path id="Vector" d="M24 12.3711C24 5.74367 18.6274 0.371094 12 0.371094C5.37258 0.371094 0 5.74367 0 12.3711C0 18.9985 5.37258 24.3711 12 24.3711C18.6274 24.3711 24 18.9985 24 12.3711Z" fill="white"/>
</g>
</mask>
<g mask="url(#mask0_12_228)">
<g id="Group_2">
<path id="Vector_2" fill-rule="evenodd" clip-rule="evenodd" d="M24 0.371094H0V24.3711H24V0.371094ZM6 12.3711C6 9.06271 8.69162 6.37109 12 6.37109C15.3084 6.37109 18 9.06271 18 12.3711C18 15.6795 15.3084 18.3711 12 18.3711C8.69162 18.3711 6 15.6795 6 12.3711ZM15.2625 8.44941C14.3789 7.71399 13.2427 7.27109 12 7.27109C11.5573 7.27109 11.1302 7.33322 10.7209 7.43867C11.3675 8.32132 11.9435 9.25697 12.474 10.2219C13.4924 9.76803 14.4367 9.17642 15.2625 8.44941ZM11.6238 10.5371C11.0849 9.57037 10.4993 8.63391 9.83555 7.75625C8.46928 8.39654 7.43907 9.62167 7.06172 11.1143C7.4044 11.1477 7.74971 11.1711 8.1 11.1711C9.34131 11.1711 10.5151 10.9223 11.6238 10.5371ZM17.0977 12.3225C17.0861 11.0876 16.6384 9.96057 15.9006 9.08515C15.0121 9.87396 13.9931 10.5153 12.8953 11.0117C13.099 11.4176 13.297 11.8246 13.4777 12.2434C13.9967 12.1419 14.5266 12.0711 15.075 12.0711C15.7728 12.0711 16.4498 12.16 17.0977 12.3225ZM12.1062 11.4465C12.0886 11.4118 12.0709 11.377 12.0533 11.3422C10.8135 11.7901 9.49301 12.0711 8.1 12.0711C7.69975 12.0711 7.30734 12.043 6.91875 12.0031C6.91771 12.0178 6.91665 12.0324 6.91558 12.047C6.90779 12.1544 6.9 12.2617 6.9 12.3711C6.9 13.6669 7.38461 14.8441 8.17734 15.7426C9.22478 14.2007 10.786 13.046 12.6047 12.4772C12.4508 12.1261 12.2787 11.7868 12.1062 11.4465ZM17.0215 13.2359C16.4005 13.0669 15.7496 12.9711 15.075 12.9711C14.7354 12.9711 14.4135 13.0313 14.0915 13.0915C14.0031 13.108 13.9146 13.1246 13.8258 13.1399C14.2532 14.2518 14.6266 15.3906 14.8934 16.5717C16.0008 15.8084 16.786 14.6179 17.0215 13.2359ZM14.0719 17.0305C13.8019 15.7435 13.3988 14.5088 12.9275 13.3086C11.2292 13.8234 9.78266 14.9143 8.83828 16.3707C9.70713 17.0579 10.8032 17.4711 12 17.4711C12.7388 17.4711 13.4387 17.3117 14.0719 17.0305Z" fill="#ABABAB"/>
</g>
</g>
</g>
</g>
</svg>
